<?xml version="1.0" standalone="no"?>
<!DOCTYPE svg PUBLIC "-//W3C//DTD SVG 1.1//EN" "http://www.w3.org/Graphics/SVG/1.1/DTD/svg11.dtd" >
<svg xmlns="http://www.w3.org/2000/svg" xmlns:xlink="http://www.w3.org/1999/xlink" version="1.1">
<metadata>
Created by FontForge 20150318 at Wed Jun 10 11:19:18 2015
 By uniteet7
Converted by ALLTYPE
</metadata>
<defs>
<font id="HelveticaCondensedLightLight" horiz-adv-x="461" >
  <font-face 
    font-family="HelveticaCondensedLightLight"
    font-weight="5"
    font-stretch="normal"
    units-per-em="1000"
    panose-1="0 0 0 0 0 0 0 0 0 0"
    ascent="800"
    descent="-200"
    x-height="485"
    cap-height="657"
    bbox="-53 -182 834 844"
    underline-thickness="50"
    underline-position="-55"
    unicode-range="U+0020-F002"
  />
<missing-glyph 
 />
    <glyph glyph-name=".notdef" 
 />
    <glyph glyph-name="glyph1" horiz-adv-x="0" 
 />
    <glyph glyph-name="glyph2" 
 />
    <glyph glyph-name="space" unicode=" " 
 />
    <glyph glyph-name="space" unicode="&#xa0;" 
 />
    <glyph glyph-name="exclam" unicode="!" horiz-adv-x="205" 
d="M60 84h62v-75h-62v75v0zM67 657h55v-290l-7 -207h-41l-7 207v290v0z" />
    <glyph glyph-name="quotedbl" unicode="&#x22;" horiz-adv-x="267" 
d="M57 657h48v-199h-48v199v0zM153 657h48v-199h-48v199v0z" />
    <glyph glyph-name="numbersign" unicode="#" horiz-adv-x="390" 
d="M201 657h43l-64 -235h64l61 235h41l-61 -235h82l-14 -48h-75l-28 -110h83l-14 -50h-82l-57 -212h-41l55 212h-62l-55 -212h-41l55 212h-89l13 50h90l27 117h-89l14 41h82l62 235v0zM237 381h-64l-27 -117h62l29 117v0z" />
    <glyph glyph-name="dollar" unicode="$" horiz-adv-x="390" 
d="M22 472q0 58 23.5 89.5t51.5 45.5q18 9 35.5 12t27.5 3v64h48v-63q59 -1 95.5 -45.5t36.5 -106.5v-13h-55q0 51 -20 78.5t-57 37.5v-241q5 -3 10.5 -5.5t10.5 -5.5q59 -28 95 -63t36 -107q0 -77 -42 -118t-110 -46v-69h-48v69q-73 4 -109.5 51.5t-36.5 124.5v5.5t1 5.5
v5.5v5.5l55 1q0 -13 0.5 -27t3.5 -28q5 -35 23.5 -64t62.5 -33v257q-73 30 -105.5 68t-32.5 111v1zM208 36q47 -1 72 34.5t25 81.5q0 37 -17 59.5t-38 36.5q-12 7 -23 12.5l-19 9.5v-234v0zM160 353v222q-34 -11 -51.5 -29t-24.5 -37q-4 -10 -5.5 -19.5t-1.5 -18.5
q0 -4 0.5 -8t0.5 -8q5 -34 27 -64t55 -39v1z" />
    <glyph glyph-name="percent" unicode="%" horiz-adv-x="696" 
d="M436 643h43l-256 -655h-43l256 655v0zM492 312q57 -1 87 -49t30 -111q0 -62 -27.5 -109.5t-89.5 -47.5q-60 0 -91.5 49t-31.5 108v1.5v1.5q1 58 31.5 107t86.5 49l5 1v0zM492 278q-29 -1 -48.5 -37.5t-21.5 -80.5v-4v-4q0 -46 17 -81.5t53 -35.5q33 0 49.5 34.5
t17.5 75.5v1.5v1.5v6.5v6.5q-3 43 -20.5 79.5t-46.5 36.5v1zM166 636h9q57 -1 86.5 -49t30.5 -106v-1.5v-1.5v-5.5v-5.5q-3 -56 -35.5 -102.5t-96.5 -46.5q-51 0 -81 50t-31 110v1.5v1.5q0 58 29.5 106t88.5 48v1zM173 602q-35 -1 -51.5 -38.5t-16.5 -82.5v-1.5v-1.5
q0 -48 15 -83.5t46 -35.5q36 0 54 36.5t20 80.5v4v4q0 44 -16 80.5t-47 36.5l-4 1v0z" />
    <glyph glyph-name="ampersand" unicode="&#x26;" horiz-adv-x="535" 
d="M389 57q-23 -30 -62.5 -47t-82.5 -19q-4 -1 -8 -1h-8h-4h-4q-67 3 -122 44t-55 128q0 1 0.5 3t0.5 5v0.5v1.5q1 2 1 4v3q3 46 16.5 79.5t40.5 65.5q13 15 29.5 30.5t36.5 32.5q-13 18 -23.5 35t-18.5 34q-10 22 -15.5 45t-5.5 47v6t1 6v3.5v3.5v3.5v3.5q4 46 37.5 71
t73.5 28h4.5h4.5h6.5t6.5 -1q43 -4 79.5 -35t36.5 -91q0 -54 -26 -91t-57 -61q-7 -6 -13.5 -11t-13.5 -10l138 -200q10 25 15 55t5 76l64 1q0 -52 -10.5 -100t-32.5 -95l77 -108h-77l-35 55v0zM355 105l-159 235q-44 -37 -62.5 -67t-23.5 -58q-3 -13 -3.5 -25t-0.5 -25
q0 -58 40 -91.5t89 -33.5q7 0 13.5 0.5t13.5 2.5q26 5 51 20t42 41v1zM218 415q22 15 39 37t26 46q4 9 6.5 17.5t3.5 16.5q0 36 -16 59.5t-52 23.5q-32 0 -49.5 -19t-17.5 -48q0 -27 15 -61.5t45 -72.5v1z" />
    <glyph glyph-name="quotesingle" unicode="'" horiz-adv-x="143" 
d="M29 575v82h69v-103v-10t-1 -9q-3 -27 -18 -50.5t-50 -27.5v35q26 10 30 25.5t4 56.5l-34 1v0z" />
    <glyph glyph-name="parenleft" unicode="(" horiz-adv-x="246" 
d="M163 672h41q-43 -77 -77 -189.5t-34 -239.5q0 -68 12 -138.5t39 -141.5q12 -31 27 -63t33 -63h-41q-61 90 -95.5 198t-34.5 221q0 32 3 65t9 66q14 73 43 145.5t75 138.5v1z" />
    <glyph glyph-name="parenright" unicode=")" horiz-adv-x="246" 
d="M12 672h48q61 -75 95.5 -191.5t34.5 -241.5q0 -12 -0.5 -24.5t-0.5 -24.5q-6 -96 -35.5 -188t-86.5 -165h-41q51 75 78.5 184.5t27.5 227.5v11.5v11.5q-3 113 -32.5 219.5t-87.5 179.5v1z" />
    <glyph glyph-name="asterisk" unicode="*" horiz-adv-x="349" 
d="M146 554v96h41v-96l98 34l13 -34l-97 -34l70 -84l-34 -21l-71 84l-61 -84l-35 21l62 84l-96 34l14 34l96 -34v0z" />
    <glyph glyph-name="plus" unicode="+" horiz-adv-x="390" 
d="M166 429h42v-192h159v-43h-159v-192h-42v192h-157v43h157v192v0z" />
    <glyph glyph-name="comma" unicode="," horiz-adv-x="205" 
d="M60 -5v82h69v-103v-9t-1 -9q-3 -27 -18 -50.5t-50 -27.5v35q26 10 30 25.5t4 56.5h-34v0z" />
    <glyph glyph-name="hyphen" unicode="-" horiz-adv-x="308" 
d="M29 237v55h228v-55h-228v0z" />
    <glyph glyph-name="period" unicode="." horiz-adv-x="205" 
d="M60 77h69v-75h-69v75v0z" />
    <glyph glyph-name="slash" unicode="/" horiz-adv-x="246" 
d="M254 657l-221 -738h-48l212 738h57v0z" />
    <glyph glyph-name="zero" unicode="0" horiz-adv-x="390" 
d="M22 367q9 152 46 220.5t110 68.5l16 1q94 -6 126.5 -106.5t32.5 -225.5q0 -148 -31 -242.5t-137 -94.5h-19q-69 3 -99 70t-38 147q-5 45 -6 87.5t-1 73.5v1zM77 346q0 -26 0.5 -54t2.5 -56q5 -78 26 -143t74 -65q74 0 93 86.5t19 210.5q0 125 -22 204t-90 79
q-60 -4 -75.5 -55t-21.5 -135q-1 -17 -2.5 -35.5t-3.5 -37.5v1z" />
    <glyph glyph-name="one" unicode="1" horiz-adv-x="390" 
d="M194 666h50v-664h-64v497l-110 -7h-27v41q1 -1 2.5 -1h2.5h2h1q2 -1 4 -1h3q68 0 96 24t35 53q3 12 4 23.5t1 21.5v13v0z" />
    <glyph glyph-name="two" unicode="2" horiz-adv-x="390" 
d="M22 2q0 3 -0.5 6.5t-0.5 7.5q-1 4 -1.5 8t-0.5 8q0 80 40.5 133t89.5 97q5 5 11 10.5t12 10.5q42 39 74 81t32 100v8q0 71 -28.5 100t-76.5 29q-51 0 -70 -33.5t-19 -110.5l-55 1q0 102 38 150t120 48q64 0 102.5 -44.5t48.5 -97.5q1 -4 1.5 -8t0.5 -8v-21
q0 -74 -42 -132.5t-93 -108.5q-45 -44 -84.5 -82.5t-48.5 -76.5q-1 -4 -1.5 -7.5t-0.5 -7.5l270 1v-61h-318v0z" />
    <glyph glyph-name="three" unicode="3" horiz-adv-x="390" 
d="M36 479q0 85 42 127t92 43h1.5h1.5q68 0 110.5 -41t42.5 -124q0 -58 -21.5 -88.5t-67.5 -56.5q41 -10 75 -46.5t34 -140.5q0 -82 -50 -125.5t-110 -45.5h-3.5h-2.5h-2.5h-3.5q-60 2 -110 47t-50 136v1.5t1 2.5v2.5v1.5l55 1q2 -74 34 -108.5t71 -34.5h5.5t4.5 1
q38 4 69 36.5t31 82.5v10q0 84 -34 114t-98 30l-28 1v55q2 -1 3.5 -1h3.5q2 -1 3.5 -1h3.5q3 -1 6 -1.5t6 -0.5q56 0 88 34t32 86v23q0 44 -26.5 70.5t-58.5 29.5h-4h-4q-3 0 -6 -0.5t-6 -0.5q-29 -5 -53 -33t-24 -81l0.5 -1t0.5 -2t0.5 -2l0.5 -1l-55 1v0z" />
    <glyph glyph-name="four" unicode="4" horiz-adv-x="390" 
d="M237 650h61v-420h55v-50h-55v-178h-61v178h-222v57l222 413v0zM237 554l-167 -324h167v324v0z" />
    <glyph glyph-name="five" unicode="5" horiz-adv-x="390" 
d="M77 643h242v-55h-194l-27 -200q15 14 35 23.5t40 12.5q6 1 11 1.5t10 0.5h5.5h5.5q53 -5 97 -58.5t44 -160.5v-13q-4 -103 -52.5 -152.5t-106.5 -54.5q-3 -1 -6.5 -1h-7.5q-58 0 -105 41.5t-47 117.5v3t1 4v0v1v3v3l55 1q4 -65 31.5 -95t59.5 -30q4 0 8.5 0.5t8.5 1.5
q37 8 68.5 48t31.5 101v15q0 87 -29 126.5t-63 44.5q-4 1 -7 1h-6h-2h-2q-28 -1 -53 -19t-32 -43l-55 1l41 331v0z" />
    <glyph glyph-name="six" unicode="6" horiz-adv-x="390" 
d="M340 506h-55v12q0 35 -25.5 59t-57.5 24q-5 0 -10.5 -0.5t-10.5 -2.5q-23 -6 -43.5 -27t-32.5 -59l-2 -6l-2 -6q-5 -17 -7.5 -35.5t-4.5 -43.5q-1 -14 -2 -31t-3 -38q17 22 41 36.5t49 20.5l14 2t14 1h5.5h5.5q52 -5 95 -53t45 -146q0 -113 -42.5 -169t-116.5 -56
q-94 0 -130.5 89.5t-36.5 207.5q0 23 1.5 46.5t3.5 47.5q3 34 8 68t10 65q13 66 54 100.5t87 38.5h5.5h5.5h5.5h5.5q47 -4 87 -40.5t40 -98.5v-6v0zM180 367q-50 -10 -74 -55.5t-24 -101.5q0 -3 0.5 -6t0.5 -6t0.5 -6t0.5 -6q5 -57 34.5 -104t75.5 -47l3 -1q46 -1 72 48
t28 108v5.5v5.5v4v4q-2 59 -29.5 108t-83.5 49l-4 1v0z" />
    <glyph glyph-name="seven" unicode="7" horiz-adv-x="390" 
d="M36 643h317v-55q-17 -21 -38.5 -55.5t-44.5 -79.5q-32 -65 -61.5 -146t-45.5 -165q-6 -32 -9 -63.5t-3 -62.5q0 -2 0.5 -4t0.5 -3q0 -2 0.5 -4t0.5 -4l-62 1q0 52 8 108t23 112q26 98 70 192t100 173l-256 1v55v0z" />
    <glyph glyph-name="eight" unicode="8" horiz-adv-x="390" 
d="M111 340q-30 20 -47.5 58t-18.5 79v3.5v2.5v4v4q3 62 40.5 113.5t108.5 51.5q73 0 106.5 -50t35.5 -110v-3.5v-2.5q0 -49 -19 -92.5t-53 -58.5q41 -12 64 -59.5t24 -101.5v-2v-2v-8t-1 -8q-4 -63 -40.5 -115.5t-109.5 -54.5h-16q-83 0 -122 54.5t-39 121.5v10t1 9
q4 50 27 94t59 62v1zM187 312q-52 -1 -78.5 -38t-26.5 -85q0 -2 0.5 -4t0.5 -4q0 -3 0.5 -5t0.5 -4v-1.5v-1.5q1 -50 26.5 -92t76.5 -42q55 0 81 42t27 92v1.5v1.5v1.5v1.5q-1 51 -26.5 93.5t-72.5 42.5l-9 1v0zM194 602q-46 -1 -68 -38.5t-28 -82.5v-1.5v-1.5v-1.5v-1.5
q1 -44 23 -81t63 -37l1.5 0.5t3.5 0.5v0v0q2 0 3 0.5t2 0.5q41 3 61 40.5t21 81.5v1.5v1.5q0 44 -20 80.5t-59 36.5l-3 1v0z" />
    <glyph glyph-name="nine" unicode="9" horiz-adv-x="390" 
d="M43 132h55q0 -2 -0.5 -3.5t-0.5 -3.5t-0.5 -3.5t-0.5 -2.5v-1.5v-1.5q1 -31 27 -57.5t59 -26.5q8 0 16.5 2t17.5 7q15 7 29.5 22.5t25.5 40.5q9 18 13.5 46t6.5 58q1 20 1 39.5v36.5q-12 -15 -24.5 -26t-24.5 -19q-18 -11 -35 -16.5t-33 -5.5q-37 0 -69 24.5t-49 55.5
q-13 26 -20.5 59.5t-7.5 69.5q0 7 0.5 14.5t0.5 15.5q6 72 41 133t102 67l14 1q68 -1 101 -53.5t46 -115.5q8 -42 10 -80.5t2 -62.5v-40q0 -165 -42.5 -242.5t-130.5 -81.5q-52 0 -92 38t-40 98v3t1 3v1v0q0 2 0.5 4t0.5 3v1zM194 602h-9q-42 -1 -69.5 -52t-31.5 -115
q0 -62 23 -113.5t80 -51.5l3 -1q52 -1 76 46t24 106v10t-1 10q-4 60 -29 110t-66 50v1z" />
    <glyph glyph-name="colon" unicode=":" horiz-adv-x="205" 
d="M60 91h69v-76h-69v76v0zM60 451h69v-77h-69v77v0z" />
    <glyph glyph-name="semicolon" unicode=";" horiz-adv-x="205" 
d="M53 15v83h69v-103v-9t-1 -9q-3 -27 -18 -50.5t-50 -27.5v34q26 10 30 25.5t4 55.5l-34 1v0zM53 458h69v-77h-69v77v0z" />
    <glyph glyph-name="less" unicode="&#x3c;" horiz-adv-x="390" 
d="M9 237l365 207v-56l-324 -174l324 -171v-55l-365 206v43v0z" />
    <glyph glyph-name="equal" unicode="=" horiz-adv-x="390" 
d="M15 111v49h359v-49h-359v0zM15 312h359v-48h-359v48v0z" />
    <glyph glyph-name="greater" unicode="&#x3e;" horiz-adv-x="390" 
d="M9 451l358 -207v-50l-358 -206v55l317 171l-317 181v56v0z" />
    <glyph glyph-name="question" unicode="?" horiz-adv-x="349" 
d="M118 77h69v-75h-69v75v0zM15 479v4v6q-1 0 -1 0.5v1.5v4.5v4.5q0 86 45.5 127t100.5 41h8t8 -1q51 -5 93.5 -43t42.5 -100v-25q0 -50 -20.5 -88t-45.5 -71q-7 -10 -14.5 -19.5t-14.5 -18.5q-15 -23 -26 -46t-11 -49v-54h-55v61q5 39 25.5 74t43.5 68q9 13 18 25.5
t17 25.5q15 24 25 48t10 50q0 50 -27 78t-59 32q-2 1 -4.5 1h-5.5h-4h-4q-34 -4 -62.5 -35.5t-28.5 -94.5v-2v-2v0h1v-3v-1l-55 1v0z" />
    <glyph glyph-name="at" unicode="@" horiz-adv-x="696" 
d="M666 153q-37 -78 -123 -126t-183 -48q-10 0 -21 0.5t-21 2.5q-48 6 -94 25t-85 55q-61 47 -92.5 117t-31.5 146v11.5t1 10.5q7 123 95.5 226t255.5 105l10 1q127 -1 200.5 -75t92.5 -163q3 -16 4.5 -31t1.5 -30v-8v-8q-1 -15 -3.5 -30.5t-6.5 -29.5q-21 -61 -53.5 -101.5
t-67.5 -62.5q-22 -13 -43 -19.5t-39 -6.5q-27 0 -46.5 14.5t-21.5 36.5q-7 -5 -14.5 -10t-14.5 -9q-21 -12 -42.5 -18.5t-40.5 -6.5q-52 0 -89.5 41t-37.5 108q0 28 8.5 61t24.5 67q3 6 6 11.5t6 11.5q21 43 64 77.5t91 41.5q4 0 9 0.5t9 0.5q7 0 13.5 -1t13.5 -2
q21 -5 41 -18t37 -36l13 43h48l-96 -297q0 -3 -0.5 -5t-1.5 -3v-1.5v-0.5q-2 -7 -3.5 -13.5t-1.5 -11.5q0 -18 9.5 -28t25.5 -10q8 0 18.5 3.5t21.5 10.5q9 5 18 12.5t17 16.5q24 26 41 53t26 55q7 21 10.5 41.5t3.5 40.5q0 95 -73.5 167t-194.5 72q-137 -3 -213 -95.5
t-78 -202.5v-2.5v-3.5v-8.5v-8.5q5 -75 46 -143.5t122 -108.5q28 -14 59.5 -22.5t65.5 -8.5q8 0 16.5 0.5t17.5 1.5q62 7 119.5 38.5t93.5 86.5l57 1v0zM451 381q3 10 5 19.5t2 17.5q0 35 -24.5 55t-57.5 20q-13 0 -26.5 -3t-27.5 -10q-30 -15 -58.5 -47.5t-47.5 -87.5
q-1 -3 -1.5 -5.5t-1.5 -4.5q-4 -16 -6.5 -31t-2.5 -27q0 -52 28 -82t65 -30q9 0 19 2.5t20 6.5q20 10 39.5 28.5t32.5 46.5l43 132v0z" />
    <glyph glyph-name="A" unicode="A" horiz-adv-x="432" 
d="M180 657h64l178 -655h-62l-48 206h-194l-55 -206h-61l178 655v0zM208 595l-76 -331h166l-90 331v0z" />
    <glyph glyph-name="B" unicode="B" horiz-adv-x="432" 
d="M50 657h180q64 -1 102.5 -48t42.5 -103q1 -3 1 -6.5v-6.5q0 -43 -22 -80t-69 -54q48 -9 80 -57.5t35 -105.5v-5.5v-4.5v-6v-5q-4 -64 -53.5 -118t-159.5 -56l-137 1v655v0zM111 57h90q1 -1 2.5 -1.5t3.5 -0.5h0.5h1.5q1 -1 2 -1h2q62 0 92.5 42t30.5 92v4v4q-3 49 -33 89
t-87 40l-105 1v-269v0zM111 609v-228h83l1.5 -1.5t1.5 -0.5l0.5 -0.5t1.5 -0.5q56 0 86.5 36.5t30.5 80.5v4v4q-3 39 -31 72t-79 33l-95 1v0z" />
    <glyph glyph-name="C" unicode="C" horiz-adv-x="493" 
d="M431 230q-10 -135 -63 -188.5t-115 -59.5q-5 0 -10.5 -0.5t-10.5 -0.5q-80 3 -117.5 62.5t-51.5 131.5q-8 45 -10 87t-2 70q0 5 0.5 10.5t0.5 11.5q2 26 3.5 57t7.5 63q11 72 48 131.5t127 59.5q88 0 134.5 -45.5t51.5 -148.5l-62 1q-5 66 -33.5 104.5t-90.5 38.5
q-78 0 -101.5 -88t-23.5 -223q0 -22 1 -50.5t5 -57.5q9 -61 38 -111t95 -50q54 0 80 45t34 99q1 13 2 25.5t1 24.5l62 1v0z" />
    <glyph glyph-name="D" unicode="D" horiz-adv-x="493" 
d="M58 657h144q136 -1 186.5 -76.5t50.5 -241.5q0 -161 -54 -249.5t-167 -88.5l-160 1v655v0zM120 595v-532h98q77 -1 114.5 70.5t37.5 172.5v12.5v13.5q-1 1 -1 2.5v2.5v11.5v10.5q-5 104 -29.5 169.5t-143.5 65.5l-76 1v0z" />
    <glyph glyph-name="E" unicode="E" horiz-adv-x="390" 
d="M50 657h303v-62h-235v-214h208v-62h-208v-256h235v-61h-303v655v0z" />
    <glyph glyph-name="F" unicode="F" horiz-adv-x="390" 
d="M43 2v655h310v-55h-242v-228h222v-55h-222v-317h-68v0z" />
    <glyph glyph-name="G" unicode="G" horiz-adv-x="493" 
d="M218 333h192v-331h-41v82q-16 -39 -42.5 -59.5t-54.5 -27.5q-16 -5 -31 -7t-28 -2q-16 0 -29.5 2t-22.5 5q-61 21 -88.5 85.5t-36.5 137.5q-4 33 -5.5 65.5t-1.5 61.5q0 12 0.5 24t0.5 23q0 10 0.5 19.5t0.5 16.5v9.5v9.5q4 84 45 154t133 70l12 1q15 -1 31.5 -2t33.5 -6
q39 -10 73 -49t44 -137l-55 1q-8 63 -32 93t-52 40q-10 3 -19.5 4.5t-18.5 1.5q-11 0 -21.5 -1.5t-18.5 -3.5t-13 -3.5l-5 -1.5q-39 -14 -57 -65.5t-23 -110.5q-2 -25 -3 -48.5t-1 -44.5q0 -10 0.5 -20t0.5 -19t0.5 -16.5t0.5 -13.5q0 -92 24 -142.5t53 -72.5
q15 -11 29.5 -15.5t25.5 -4.5q53 0 95 58t42 162v23h-137v55v0z" />
    <glyph glyph-name="H" unicode="H" horiz-adv-x="493" 
d="M51 657h62v-283h242v283h62v-655h-62v324h-242v-324h-62v655v0z" />
    <glyph glyph-name="I" unicode="I" horiz-adv-x="205" 
d="M67 657h62v-655h-62v655v0z" />
    <glyph glyph-name="J" unicode="J" horiz-adv-x="349" 
d="M230 657h62v-504q0 -78 -36 -121.5t-98 -43.5h-12q-62 4 -97 44.5t-35 132.5v6.5t1 6.5v2v2v5.5v5.5l62 1v-6.5t-1 -5.5v-2v-2q0 -3 -0.5 -6.5t-0.5 -6.5q0 -64 16.5 -89.5t36.5 -31.5q5 -1 9.5 -1.5t8.5 -0.5q41 0 62.5 18t21.5 85v512v0z" />
    <glyph glyph-name="K" unicode="K" horiz-adv-x="432" 
d="M43 657h62v-324l228 324h75l-192 -276l199 -379h-69l-173 324l-68 -89v-235h-62v655v0z" />
    <glyph glyph-name="L" unicode="L" horiz-adv-x="390" 
d="M57 2v655h61v-600h242v-55h-303v0z" />
    <glyph glyph-name="M" unicode="M" horiz-adv-x="637" 
d="M55 2v655h103l152 -573l160 573h103v-655h-69v579l-159 -579h-62l-160 573v-573h-68v0z" />
    <glyph glyph-name="N" unicode="N" horiz-adv-x="493" 
d="M51 2v655h76l139 -311l96 -248v559h62v-655h-69l-242 566v-566h-62v0z" />
    <glyph glyph-name="O" unicode="O" horiz-adv-x="493" 
d="M238 666q119 -8 156 -96t37 -238q0 -28 -0.5 -62t-4.5 -68q-10 -81 -50 -147.5t-144 -66.5q-100 0 -137 69.5t-46 153.5q-3 34 -3.5 67t-0.5 61q0 5 -0.5 10.5t-0.5 11.5t-0.5 13t-0.5 14q0 22 1.5 48t6.5 52q12 65 52 119t135 58v1zM238 616q-88 -1 -113.5 -83
t-25.5 -201q0 -25 1 -54.5t5 -60.5q8 -67 35.5 -122.5t91.5 -59.5l1 -0.5t2 -0.5t2 -0.5l1 -0.5q69 0 97 54t36 118q3 26 4 51.5t1 47.5v49q0 21 -1.5 49.5t-6.5 57.5q-9 55 -37.5 102t-92.5 53v1z" />
    <glyph glyph-name="P" unicode="P" horiz-adv-x="432" 
d="M63 657h153q103 -1 150 -52.5t47 -114.5v-9.5t-1 -8.5q-7 -66 -60 -120.5t-144 -54.5l-83 1v-296h-62v655v0zM125 609v-256h98q62 -1 95.5 37.5t36.5 84.5v4v4v4v4q-3 44 -34 80.5t-91 36.5l-105 1v0z" />
    <glyph glyph-name="Q" unicode="Q" horiz-adv-x="493" 
d="M424 -39l-69 54q-15 -11 -35.5 -18.5t-42.5 -11.5q-7 -1 -14 -1.5t-14 -0.5q-5 0 -10.5 0.5t-10.5 0.5q-65 8 -119.5 74t-57.5 219v19.5v18.5q-1 9 -1 18v18q0 135 36 223t159 97q84 -2 124 -55.5t55 -116.5q10 -43 12.5 -83t2.5 -64v-12q0 -20 -1 -61t-6 -86
q-5 -41 -15 -78t-28 -59l71 -54l-36 -41v0zM280 153l61 -62q23 30 29 75t6 97v77q-5 165 -42 216.5t-89 51.5t-89.5 -42t-42.5 -109q0 -8 -0.5 -16t-1.5 -16q-1 -24 -2 -46.5t-1 -41.5q0 -166 37.5 -234t91.5 -68q11 0 24.5 3.5t27.5 9.5q4 2 9 4t9 4l-62 55l35 42v0z" />
    <glyph glyph-name="R" unicode="R" horiz-adv-x="432" 
d="M50 657h158q89 -1 134 -47t52 -102q0 -5 0.5 -10t0.5 -10v-1.5v-1.5q-1 -52 -31.5 -96t-85.5 -50q3 -1 5.5 -2t4.5 -2q50 -20 68 -58t18 -167v-17t1 -18q1 -21 6.5 -39t19.5 -22v-12h-61q-10 13 -13 27.5t-4 32.5q-1 9 -1.5 19.5t-2.5 22.5q-1 6 -1.5 13.5t-0.5 17.5
q0 14 -1 31t-4 35q-5 41 -27 75.5t-77 34.5l-97 1v-310h-61v655v0zM111 609v-242h97q1 -1 2 -1.5t3 -0.5q1 0 2.5 -0.5t2.5 -0.5q47 0 73 37.5t26 82.5v5.5v5.5q-3 42 -31.5 77.5t-84.5 35.5l-90 1v0z" />
    <glyph glyph-name="S" unicode="S" horiz-adv-x="432" 
d="M22 194h55q11 -78 42.5 -115t88.5 -37q5 0 10.5 0.5t10.5 1.5q39 6 71.5 38t32.5 92v27q-4 39 -35.5 60t-74.5 38q-9 3 -18 7t-19 8q-55 23 -101 62t-46 124q0 3 0.5 7t1.5 8v2t1 2q0 3 0.5 6.5t0.5 6.5q6 65 53 97.5t103 33.5h1.5h1.5h9.5t9.5 -1q59 -5 108 -44.5
t52 -112.5l-62 1q0 44 -33 75.5t-73 37.5q-4 0 -8.5 0.5t-8.5 0.5q-35 0 -64.5 -25t-33.5 -83q0 -2 -0.5 -4.5t-0.5 -4.5q0 -3 -0.5 -5.5t-0.5 -4.5q0 -63 42 -91t95 -49q3 -2 6 -3t7 -2q54 -22 100.5 -54.5t48.5 -107.5v-6q0 -92 -55.5 -140.5t-121.5 -53.5h-7.5h-6.5h-1.5
h-1.5q-67 1 -123.5 49.5t-56.5 148.5v2t1 3v2v2v1z" />
    <glyph glyph-name="T" unicode="T" horiz-adv-x="390" 
d="M2 657h365v-62h-151v-593h-63v593h-151v62v0z" />
    <glyph glyph-name="U" unicode="U" horiz-adv-x="493" 
d="M58 657h62v-470q0 -78 25.5 -111.5t92.5 -33.5q57 0 90.5 27.5t33.5 109.5v478h62v-504q0 -94 -54.5 -129.5t-131.5 -35.5h-17q-76 0 -119.5 48t-43.5 150v471v0z" />
    <glyph glyph-name="V" unicode="V" horiz-adv-x="452" 
d="M3 657h69l137 -580l160 580h62l-186 -655h-70l-172 655v0z" />
    <glyph glyph-name="W" unicode="W" horiz-adv-x="637" 
d="M7 657h62l103 -559l104 559h76l104 -552l96 552h62l-130 -655h-64l-110 559l-111 -559h-62l-130 655v0z" />
    <glyph glyph-name="X" unicode="X" horiz-adv-x="432" 
d="M208 278l-138 -276h-68l164 338l-157 317h75l124 -256l125 256h75l-158 -317l165 -338h-69l-138 276v0z" />
    <glyph glyph-name="Y" unicode="Y" horiz-adv-x="432" 
d="M9 657h61l146 -317l137 317h55l-164 -379v-276h-64v276l-171 379v0z" />
    <glyph glyph-name="Z" unicode="Z" horiz-adv-x="390" 
d="M36 657h317v-55l-269 -552h269v-48h-331v48l270 552h-256v55v0z" />
    <glyph glyph-name="bracketleft" unicode="[" horiz-adv-x="246" 
d="M67 672h137v-42h-82v-676h82v-41h-137v759v0z" />
    <glyph glyph-name="backslash" unicode="\" horiz-adv-x="267" 
d="M-53 666h55l228 -664h-57l-226 664v0z" />
    <glyph glyph-name="bracketright" unicode="]" horiz-adv-x="246" 
d="M33 636v43h144v-760h-138v42h83v675h-89v0z" />
    <glyph glyph-name="asciicircum" unicode="^" horiz-adv-x="390" 
d="M166 657h42l118 -359h-41l-98 290l-96 -290h-41l116 359v0z" />
    <glyph glyph-name="underscore" unicode="_" horiz-adv-x="432" 
d="M-12 -94v55h441v-55h-441v0z" />
    <glyph glyph-name="grave" unicode="`" horiz-adv-x="143" 
d="M22 540q0 58 15 82.5t32 33.5q6 3 11.5 5t10.5 4v-35q-2 -1 -5 -2t-5 -2q-9 -5 -16.5 -17.5t-7.5 -28.5v-40h34v-82h-69v82v0z" />
    <glyph glyph-name="a" unicode="a" horiz-adv-x="349" 
d="M29 367v0.5v1.5q1 51 29 93.5t95 42.5q83 0 111 -37t28 -116v-261q0 -37 4.5 -43t29.5 -6v-40q-5 -1 -10.5 -1.5t-9.5 -0.5h-9h-7q-28 0 -38.5 8.5t-14.5 40.5q-2 -3 -4 -5.5t-4 -4.5q-15 -18 -36 -31t-75 -13q-49 0 -76 33.5t-27 87.5q0 10 1.5 20.5t3.5 21.5v1v2
q1 2 1.5 5t0.5 6q10 45 40.5 68t65.5 35q11 5 21.5 8.5t20.5 6.5q28 10 47.5 21.5t19.5 33.5q0 74 -20.5 96.5t-56.5 22.5q-41 0 -56 -25.5t-20 -72.5l-55 1v0zM237 278q-5 -10 -17 -17t-28 -13q-9 -4 -18 -7.5t-19 -7.5q-32 -13 -58.5 -34t-26.5 -61q0 -41 11.5 -68.5
t57.5 -27.5q47 0 72.5 34.5t25.5 95.5v106v0z" />
    <glyph glyph-name="b" unicode="b" horiz-adv-x="390" 
d="M43 666h55v-215q14 16 33.5 27t40.5 17q10 2 20 3.5t19 1.5q4 0 8.5 -0.5t8.5 -0.5q8 -2 15.5 -4t13.5 -4q48 -24 68 -77t25 -112q2 -17 2.5 -33.5t0.5 -32.5q0 -13 -0.5 -26t-0.5 -26q-4 -63 -22.5 -118t-65.5 -71q-6 -2 -13.5 -3.5t-14.5 -2.5q-6 0 -11.5 -0.5
t-10.5 -0.5q-33 0 -62 14.5t-47 39.5v-40h-62v664v0zM105 250q0 -105 19.5 -160t76.5 -55q62 0 76.5 43t14.5 106v73q0 106 -27.5 147t-63.5 41h-10.5t-10.5 -2q-31 -11 -53 -46t-22 -148v1z" />
    <glyph glyph-name="c" unicode="c" horiz-adv-x="349" 
d="M250 160h55q0 -13 -0.5 -25.5t-2.5 -25.5q-7 -48 -36 -88t-100 -40q-72 0 -108.5 59.5t-36.5 181.5v8.5t1 8.5v9v8q0 129 32.5 185.5t105.5 56.5q10 0 21 -1t23 -4q33 -9 62 -42.5t32 -111.5l-48 1q-4 45 -26.5 77.5t-63.5 32.5q-52 0 -67.5 -57.5t-15.5 -129.5
q0 -3 -0.5 -6.5t-0.5 -7.5q0 -2 -0.5 -4t-0.5 -4v-5v-4q0 -16 0.5 -34.5t2.5 -37.5q5 -47 23 -86t59 -39q63 0 76.5 39t13.5 85v1z" />
    <glyph glyph-name="d" unicode="d" horiz-adv-x="390" 
d="M271 666h55v-664h-48v41q-7 -24 -38.5 -42t-67.5 -18q-7 0 -14 1t-14 3q-44 12 -80.5 67.5t-36.5 179.5q0 1 0.5 3t0.5 4v1v2q1 1 1 2.5v2.5q3 131 39.5 184t79.5 60q4 1 8.5 1.5t9.5 0.5h2h2q28 -1 54 -13t39 -27q3 -3 5 -6t3 -6v223v0zM77 244q0 -92 30 -155t73 -63
q1 0 2 0.5t2 0.5l1 0.5t2 0.5q48 7 66 52t23 98q1 22 1.5 44t0.5 41q0 72 -27.5 129.5t-70.5 57.5q-55 0 -78.5 -62t-24.5 -136v-5v-4v1z" />
    <glyph glyph-name="e" unicode="e" horiz-adv-x="349" 
d="M29 230q0 148 38.5 204.5t105.5 56.5q74 0 107.5 -60.5t33.5 -146.5v-8t-1 -8v-4v-4q0 -6 -0.5 -12t-0.5 -12l-228 1q0 -1 -0.5 -2t-0.5 -2q0 -2 -0.5 -4t-0.5 -4q0 -13 1.5 -39t7.5 -55q9 -39 27.5 -71t54.5 -32q39 0 58.5 25.5t23.5 56.5q1 6 1.5 11.5t0.5 11.5v20h55
v-16q0 -79 -39.5 -115t-86.5 -40q-3 -1 -6.5 -1h-6.5q-65 3 -94.5 44t-40.5 91q-7 33 -8 63.5t-1 49.5v1zM257 285q0 92 -24.5 124t-54.5 34h-2.5h-2.5q-41 0 -62.5 -36t-26.5 -123l173 1v0z" />
    <glyph glyph-name="f" unicode="f" horiz-adv-x="205" 
d="M67 2v434h-55v49h55v76q0 67 27 82t65 19q6 1 12.5 1.5t12.5 1.5v-49q-41 -1 -51.5 -11.5t-10.5 -51.5v-68h55v-49h-55v-434h-55v0z" />
    <glyph glyph-name="g" unicode="g" horiz-adv-x="390" 
d="M271 444v41h55v-504q0 -12 -2 -26.5t-6 -29.5q-11 -33 -41 -60.5t-92 -27.5h-12q-11 0 -25 1.5t-29 7.5q-27 9 -50 33.5t-26 74.5h55q0 -1 -0.5 -1.5t-0.5 -1.5t-0.5 -1.5l-0.5 -0.5q0 -4 1.5 -9t3.5 -9q9 -18 31 -33t48 -15q2 0 5 0.5t6 0.5t5.5 0.5t4.5 0.5
q29 4 53 31.5t24 94.5v25q-11 -18 -35.5 -28.5t-51.5 -12.5h-4.5h-4.5q-9 0 -17.5 1t-17.5 4q-45 11 -82.5 63.5t-37.5 163.5q0 2 0.5 4t0.5 4t0.5 4.5t0.5 3.5q3 136 41.5 193t83.5 63q4 1 7.5 1h6.5q4 0 8 -0.5t8 -0.5q27 -4 51.5 -20t35.5 -36v1zM278 237q-5 107 -26 160
t-79 53q-41 0 -65 -54t-24 -167q5 -125 32.5 -159.5t63.5 -34.5q58 0 75.5 53.5t22.5 147.5v1z" />
    <glyph glyph-name="h" unicode="h" horiz-adv-x="390" 
d="M50 657h55v-221q9 26 39.5 41.5t64.5 15.5h5.5h5.5q42 -3 77.5 -32t35.5 -88v-371h-55v379q0 32 -22.5 49t-49.5 17q-5 0 -10 -0.5t-10 -1.5q-30 -7 -55.5 -32t-25.5 -68v-343h-55v655v0z" />
    <glyph glyph-name="i" unicode="i" horiz-adv-x="205" 
d="M67 485h62v-483h-62v483v0zM67 657h62v-89h-62v89v0z" />
    <glyph glyph-name="j" unicode="j" horiz-adv-x="205" 
d="M74 485h55v-552q0 -56 -25 -76t-61 -20h-24v48h14q22 0 31.5 13t9.5 35v552v0zM67 657h69v-82h-69v82v0z" />
    <glyph glyph-name="k" unicode="k" horiz-adv-x="349" 
d="M57 657h48v-400l159 228h62l-132 -187l139 -296h-55l-118 248l-49 -63v-185h-54v655v0z" />
    <glyph glyph-name="l" unicode="l" horiz-adv-x="205" 
d="M67 657h55v-655h-55v655v0z" />
    <glyph glyph-name="m" unicode="m" horiz-adv-x="596" 
d="M48 485h55v-34q10 19 37 31.5t58 13.5h2h2h4h4q30 -2 56.5 -16t37.5 -45q12 21 41 38t62 21q4 1 7.5 1h7.5q41 0 75.5 -31.5t34.5 -111.5v-350h-48v365q0 41 -24 62.5t-52 22.5h-1.5h-1.5h-2.5h-2.5q-31 -2 -57 -28.5t-26 -78.5v-343h-55v365q0 42 -24.5 62.5t-53.5 20.5
h-2.5h-2.5q-31 -2 -57 -26.5t-26 -71.5v-350h-48v483v0z" />
    <glyph glyph-name="n" unicode="n" horiz-adv-x="390" 
d="M105 485v-41q13 22 37.5 37t51.5 19q5 1 10 1.5t10 0.5h2.5h3.5q39 -2 72.5 -32t33.5 -97v-371h-55v379q0 37 -21.5 55.5t-48.5 18.5q-4 0 -7.5 -0.5t-6.5 -0.5q-31 -5 -56.5 -31.5t-25.5 -70.5v-350h-55v483h55v0z" />
    <glyph glyph-name="o" unicode="o" horiz-adv-x="390" 
d="M180 499q79 -1 117 -54t43 -141v-14t1 -17v-6.5v-6.5v-10.5v-10.5q0 -16 -0.5 -32t-2.5 -33q-7 -73 -40.5 -133t-117.5 -60q-83 0 -114.5 70t-31.5 188q0 6 0.5 12.5t0.5 12.5q0 7 0.5 13.5t0.5 13.5q0 14 2.5 41.5t12.5 57.5q13 38 42.5 70t86.5 38v1zM180 451
q-35 -1 -55 -28t-29 -60q-7 -24 -9.5 -46t-2.5 -33q0 -3 -0.5 -6.5t-0.5 -6.5v-3.5t-1 -3.5v-4.5v-4.5q0 -19 1 -41.5t4 -45.5q6 -53 26.5 -96.5t66.5 -43.5q54 0 78 48.5t31 106.5q1 15 2 30.5t1 29.5q0 82 -19 144.5t-93 62.5v1z" />
    <glyph glyph-name="p" unicode="p" horiz-adv-x="390" 
d="M43 485h48v-41q13 27 39 42.5t55 18.5h4.5h4.5q5 0 10 -0.5t10 -1.5q36 -6 68.5 -36t43.5 -87q3 -24 6 -56.5t4 -67.5v-7v-8q0 -10 -0.5 -20t-0.5 -20q-2 -35 -7.5 -69.5t-15.5 -62.5q-12 -38 -41.5 -57.5t-62.5 -22.5q-3 -1 -6 -1h-6q-31 0 -59.5 15t-45.5 46v-205h-48
v641v0zM187 458q-58 -1 -75.5 -49t-19.5 -106q-1 -14 -1 -27.5v-26.5q0 -99 20.5 -156.5t82.5 -57.5q42 0 66.5 57t24.5 151v23t-1 23q-2 63 -20.5 115.5t-76.5 52.5v1z" />
    <glyph glyph-name="q" unicode="q" horiz-adv-x="390" 
d="M271 485h55v-648h-55v206q-10 -24 -40.5 -43t-65.5 -19h-5.5t-5.5 1q-46 5 -84 58.5t-41 188.5q0 2 -0.5 4t-0.5 5q0 2 -0.5 4t-0.5 4q0 136 39.5 194t86.5 64q3 1 6.5 1h6.5q4 0 7.5 -0.5t7.5 -0.5q27 -4 51.5 -18t38.5 -36v35v0zM173 451q-47 -1 -66.5 -46.5
t-23.5 -100.5q-1 -11 -1.5 -21.5t-0.5 -21.5q0 -8 0.5 -16.5t1.5 -15.5q0 -8 0.5 -15.5t0.5 -13.5q0 -3 0.5 -6.5t0.5 -6.5q1 -13 2 -27.5t4 -29.5q6 -37 24 -67t63 -30q1 0 2 0.5t3 0.5q1 0 2 0.5t2 0.5q45 0 61.5 42.5t20.5 94.5q1 16 1.5 32.5t0.5 31.5v35
q0 13 -1.5 35.5t-6.5 46.5q-8 36 -26 66.5t-53 30.5l-11 1v0z" />
    <glyph glyph-name="r" unicode="r" horiz-adv-x="246" 
d="M53 485h55v-56q16 31 41 50t77 19v-54q-5 -2 -9 -2.5t-8 -1.5q-53 -10 -73.5 -31t-20.5 -98v-309h-62v483v0z" />
    <glyph glyph-name="s" unicode="s" horiz-adv-x="349" 
d="M298 367h-54q-1 40 -22 61.5t-46 24.5q-2 1 -4.5 1h-5.5h-1.5h-1.5q-27 -1 -49.5 -21.5t-22.5 -52.5q0 -29 21 -47.5t51 -34.5q10 -5 19.5 -10.5t20.5 -11.5q41 -23 76 -57.5t35 -99.5v-11t-1 -13v-6t-1 -6q-5 -43 -47 -72t-92 -30h-1.5h-1.5q-4 0 -9 0.5t-9 0.5
q-45 6 -83.5 42t-46.5 114l55 1q4 -56 29 -81.5t54 -27.5h2.5h3.5h2.5h3.5q31 2 57 23t28 51v14q0 52 -33 77.5t-73 45.5q-2 1 -3.5 2t-2.5 1q-36 18 -68 41t-41 67q0 2 -0.5 4t-1.5 4v2v1q-1 6 -2 11.5t-1 10.5q0 52 39.5 83.5t86.5 33.5h3.5h2.5h6h5q45 -4 82.5 -37
t41.5 -99v1z" />
    <glyph glyph-name="t" unicode="t" horiz-adv-x="205" 
d="M53 630h55v-145h62v-49h-62v-345q0 -26 7.5 -39.5t21.5 -13.5q6 0 13 3t15 6q1 0 2.5 0.5t2.5 1.5v-47q-1 -1 -2.5 -1.5t-2.5 -0.5q-6 -2 -14.5 -4t-16.5 -3h-5h-4q-5 0 -9.5 0.5t-9.5 1.5q-21 5 -38 26t-17 69q0 1 0.5 3t0.5 4v0v1q1 1 1 3v3v332h-48v49h48v145v0z" />
    <glyph glyph-name="u" unicode="u" horiz-adv-x="390" 
d="M271 50q0 -3 -1 -5.5t-2 -4.5q-10 -18 -37.5 -32.5t-59.5 -18.5q-4 0 -9 -0.5t-9 -0.5q-41 0 -75.5 29.5t-34.5 106.5v361h55v-374q0 -41 21.5 -60t48.5 -19q6 0 11.5 1t11.5 2q30 8 55 35t25 68v347h55v-483h-55v48v0z" />
    <glyph glyph-name="v" unicode="v" horiz-adv-x="349" 
d="M9 485h54l103 -394l98 394h55l-125 -483h-62l-123 483v0z" />
    <glyph glyph-name="w" unicode="w" horiz-adv-x="493" 
d="M-3 485h54l83 -394l75 394h64l68 -394l76 394h56l-104 -483h-55l-76 365l-70 -365h-55l-116 483v0z" />
    <glyph glyph-name="x" unicode="x" horiz-adv-x="349" 
d="M15 485h62l89 -187l91 187h62l-125 -235l139 -248h-62l-105 199l-96 -199h-61l130 248l-124 235v0z" />
    <glyph glyph-name="y" unicode="y" horiz-adv-x="349" 
d="M77 485l103 -394l105 394h55l-153 -559q-2 -6 -6 -17.5t-13 -24.5q-13 -18 -38 -32.5t-68 -14.5h-26v48q3 -1 5.5 -1.5t5.5 -0.5h5.5h5.5q31 0 49 18t27 39q7 18 9.5 33.5t2.5 21.5l-124 490h55v0z" />
    <glyph glyph-name="z" unicode="z" horiz-adv-x="308" 
d="M29 485h256v-49l-208 -386h208v-48h-270v48l215 386h-201v49v0z" />
    <glyph glyph-name="braceleft" unicode="{" horiz-adv-x="308" 
d="M230 672q-3 -3 -6.5 -4.5t-7.5 -2.5q-2 -1 -3.5 -1.5t-3.5 -1.5q-18 -8 -33.5 -24t-15.5 -64v-205q0 -7 -1 -14t-4 -15q-5 -13 -19.5 -25.5t-44.5 -17.5q3 -1 6.5 -2t6.5 -2q25 -8 40.5 -21t15.5 -50v-220q0 -26 20 -46.5t57 -36.5q-3 0 -5.5 -0.5t-5.5 -0.5
q-6 -1 -11.5 -1.5t-10.5 -0.5h-4h-4q-34 2 -62.5 25t-28.5 73v200q0 28 -9.5 40.5t-26.5 22.5q-8 4 -18 8.5t-22 11.5l8 2t9 2q22 6 40.5 19t18.5 39v209q0 48 19.5 69.5t43.5 28.5q11 3 21.5 4t19.5 1l21 1v0z" />
    <glyph glyph-name="bar" unicode="|" horiz-adv-x="205" 
d="M67 657h55v-655h-55v655v0z" />
    <glyph glyph-name="braceright" unicode="}" horiz-adv-x="308" 
d="M50 672h17q49 -1 81 -25t32 -67v-158q0 -55 13 -81t28 -36q9 -5 17 -7t14 -2h2h2h2t2 1h3h1q-49 -13 -66 -32t-19 -40q-1 -3 -1 -6v-6t0.5 -6.5t0.5 -6.5v-2.5v-2.5q1 -2 1 -4.5v-4.5v-191q0 -38 -20.5 -55t-45.5 -21q-7 -2 -14 -2.5t-14 -0.5t-14 0.5t-12 1.5
q-3 0 -5.5 0.5t-4.5 0.5q5 2 15 4.5t21 8.5q16 8 28.5 25t12.5 47q0 3 -0.5 6t-0.5 6v2v2q-1 2 -1 4v4v173q0 29 12 48.5t26 30.5q13 9 24.5 13t13.5 4v0q0 -1 -1 -1.5t-2 -0.5t-2 -0.5t-2 -0.5h-0.5h-1.5q-5 0 -13.5 2t-17.5 7q-12 7 -23 23.5t-13 46.5v195q0 34 -13 51.5
t-33 32.5q-7 4 -14 9t-15 10v1z" />
    <glyph glyph-name="asciitilde" unicode="~" horiz-adv-x="390" 
d="M15 194q23 40 46.5 55.5t48.5 15.5q14 0 28 -3.5t29 -8.5q5 -2 10.5 -4t10.5 -4q20 -8 39 -14.5t37 -6.5q5 0 10.5 1t11.5 2q14 5 28.5 16.5t25.5 33.5l27 -33q-8 -14 -16.5 -24.5t-16.5 -18.5q-17 -15 -33.5 -22t-32.5 -7q-20 0 -40 7t-40 16q-19 8 -37.5 15t-35.5 7
q-18 0 -35 -11t-30 -41l-35 29v0z" />
    <glyph glyph-name="glyph98" unicode="&#xa1;" horiz-adv-x="205" 
d="M122 326l7 -242v-247h-62v247l7 242h48v0zM129 485v-84h-62v84h62v0z" />
    <glyph glyph-name="cent" unicode="&#xa2;" horiz-adv-x="390" 
d="M250 595h42l-21 -110l-2 -3q0 -2 0.5 -3.5t1.5 -2.5q4 -5 12.5 -11t17.5 -18q11 -13 20.5 -38.5t11.5 -69.5l-48 1q0 25 -8.5 45t-19.5 36l-77 -371q5 -3 10.5 -4.5t11.5 -2.5q3 -1 5.5 -1h5.5q28 0 50 24t22 75v19h48q0 -4 0.5 -8t0.5 -7q1 -8 1.5 -15t0.5 -13
q0 -60 -35 -89.5t-78 -35.5q-5 0 -9.5 -0.5t-9.5 -0.5q-4 0 -9 0.5t-10 0.5q-5 1 -9.5 1.5t-9.5 1.5l-20 -117h-41l27 137q-36 20 -55.5 68.5t-19.5 172.5q0 115 29 175t115 60l29 1l20 103v0zM223 444q-3 0 -6 0.5t-6 0.5h-6h-6q-49 0 -69.5 -51.5t-24.5 -116.5
q0 -4 -0.5 -8.5t-0.5 -9.5v-2v-2q-1 -4 -1 -8v-8v-2v-1q0 -59 13 -109t30 -58l77 375v0z" />
    <glyph glyph-name="sterling" unicode="&#xa3;" horiz-adv-x="390" 
d="M84 333q-19 43 -29 81.5t-10 69.5q0 83 47 124t104 41q5 0 10 -0.5t10 -0.5q54 -8 99 -53.5t45 -127.5v-9h-55v17q0 52 -30 84t-66 39q-4 0 -8.5 0.5t-8.5 0.5q-34 0 -61.5 -29t-27.5 -91q0 -28 9 -65.5t27 -81.5l139 1v-41h-118q4 -12 7 -26.5t4 -29.5q1 -6 1 -12v-12
q0 -8 -0.5 -16t-1.5 -16q-5 -38 -21 -72.5t-44 -51.5l6 2t5 2q9 2 17.5 3t15.5 1q15 0 29.5 -3.5t28.5 -7.5q2 0 4 -0.5t4 -1.5q16 -5 32.5 -9t33.5 -4q11 0 23 2.5t24 7.5q7 3 13 6.5t12 7.5l21 -40q-13 -15 -29.5 -21t-33.5 -8h-5.5h-5.5q-19 0 -39.5 3.5t-41.5 7.5
q-6 1 -12.5 2.5t-12.5 2.5q-15 3 -30 5t-30 2h-7.5t-7.5 -1q-18 -1 -35.5 -7.5t-33.5 -19.5l-35 34q47 30 75 76t28 105q0 20 -2.5 42.5t-10.5 45.5l-96 1v41h75v0z" />
    <glyph glyph-name="Idieresis" unicode="&#xa4;" horiz-adv-x="390" 
d="M43 451l41 -43q31 20 61.5 30t60.5 10h8.5t8.5 -1q25 -2 49.5 -12t46.5 -28l34 37l42 -43l-35 -34q18 -21 28 -52.5t10 -65.5q0 -13 -1.5 -26.5t-5.5 -27.5q-4 -18 -12 -36t-19 -35l35 -33l-49 -48l-34 34q-17 -11 -35 -19t-36 -12q-11 -3 -22 -4.5t-22 -1.5
q-31 0 -61 11.5t-59 31.5l-34 -33l-48 48l34 34q-15 24 -25 52t-10 59q0 27 8.5 58t26.5 65l-34 35l48 50v0zM285 353q-16 12 -37 21t-42 11h-5.5h-4.5q-9 0 -18 -1.5t-18 -3.5q-46 -16 -72 -46t-32 -63q-2 -6 -2.5 -12.5t-0.5 -12.5v-2.5v-3.5q2 -51 41.5 -93.5
t102.5 -42.5q8 0 17 1t18 3q3 0 6 0.5t6 1.5q39 11 63.5 47t27.5 77q1 4 1 7.5v6.5v6t-1 6q-2 27 -14.5 51.5t-35.5 40.5v1z" />
    <glyph glyph-name="ae" unicode="&#xa5;" horiz-adv-x="390" 
d="M-5 650h68l131 -304l146 304h61l-171 -372v-28h116v-49h-116v-35h116v-48h-116v-116h-64v116h-116v48h116v35h-116v49h116v28l-171 372v0z" />
    <glyph glyph-name="brokenbar" unicode="&#xa6;" 
 />
    <glyph glyph-name="section" unicode="&#xa7;" horiz-adv-x="390" 
d="M326 527h-48q-3 49 -27 75t-52 32q-4 0 -7.5 0.5t-7.5 0.5h-2.5h-3.5q-27 -2 -49.5 -21.5t-23.5 -53.5q0 -1 -0.5 -2t-0.5 -3v0v0q0 -2 -0.5 -3.5l-0.5 -1.5q0 -38 28.5 -66t67.5 -54q8 -5 16 -10.5t17 -10.5q47 -31 86.5 -69t41.5 -97q0 -43 -24 -80t-65 -53
q10 -10 18.5 -20t14.5 -20q11 -18 16.5 -36t5.5 -33q0 -50 -42.5 -85.5t-93.5 -39.5q-3 -1 -6.5 -1h-6.5q-48 0 -88.5 35.5t-45.5 117.5l48 1q5 -53 28.5 -78.5t50.5 -30.5q3 0 6.5 -0.5t7.5 -0.5h2.5h3.5q29 2 54 22t27 47v10q0 33 -18.5 59t-48.5 51q-21 16 -46 33.5
t-53 37.5q-23 17 -40.5 35.5t-29.5 37.5q-11 19 -17 37.5t-6 35.5q0 38 23.5 71.5t62.5 53.5l-10 12t-9 12q-15 21 -22 42t-7 39q0 50 40.5 84t88.5 38h5.5h5.5h1.5h1.5q47 -1 87.5 -36t45.5 -115v1zM125 422q-30 -11 -46 -32t-20 -45q0 -4 -0.5 -7.5t-0.5 -7.5t0.5 -8
t0.5 -7q3 -17 11 -33t21 -26l153 -117q28 8 44 32t20 50q1 5 1.5 10t0.5 10v4.5v5.5q-2 18 -9.5 34.5t-22.5 25.5l-153 111v0z" />
    <glyph glyph-name="dieresis" unicode="&#xa8;" horiz-adv-x="20" 
d="M50 630h55v-90h-55v90v0zM194 630h56v-90h-56v90v0z" />
    <glyph glyph-name="copyright" unicode="&#xa9;" horiz-adv-x="696" 
d="M353 666q170 -8 252 -109t88 -221v-9.5v-8.5q-5 -124 -92 -224.5t-248 -105.5h-8q-165 0 -254 103.5t-91 227.5v3.5v2.5v7.5v7.5q5 119 92.5 218.5t260.5 106.5v1zM57 312q5 -120 80.5 -187.5t174.5 -82.5q3 0 6 -0.5t6 -1.5h2h2q8 -1 16.5 -2t15.5 -1q86 0 161 48.5
t102 143.5q9 31 13 59.5t4 53.5q0 131 -90 197.5t-198 66.5h-7.5h-6.5q-106 -5 -194.5 -76.5t-88.5 -208.5q0 -1 0.5 -2t0.5 -3q0 -1 0.5 -2t0.5 -3v1zM520 395h-48q-15 34 -39.5 53t-50.5 24q-5 1 -10 1.5t-10 0.5q-4 0 -7.5 -0.5t-7.5 -0.5q-45 -6 -82 -43.5t-37 -90.5v-3
t1 -3v-1v0q0 -2 0.5 -4t0.5 -3q5 -69 40.5 -108.5t77.5 -46.5q4 0 8.5 -0.5t8.5 -0.5h4h5q33 3 62.5 26.5t42.5 67.5l48 1q-1 -10 -3.5 -19t-6.5 -18q-9 -23 -26 -45t-47 -37q-10 -5 -21.5 -9t-22.5 -7q-10 -2 -19.5 -3.5t-18.5 -1.5q-76 0 -136 57.5t-60 143.5v1.5v1.5
q-1 0 -1 0.5v1.5q0 77 57.5 129t125.5 57q4 1 7.5 1h6.5h4.5h4.5q47 -3 88.5 -32t60.5 -91v1z" />
    <glyph glyph-name="ellipsis" unicode="&#xaa;" horiz-adv-x="226" 
d="M194 326v-34h-165v34h165v0zM57 595h-28q0 1 -0.5 2.5t-0.5 3.5t-0.5 4t-0.5 3q0 27 19.5 48.5t64.5 21.5q48 0 61.5 -16t14.5 -35v-2.5v-2.5v-214q5 -6 11.5 -10t17.5 -4v-20q0 -4 -5.5 -6.5t-12.5 -3.5h-2h-2h-4t-4 1q-11 2 -19.5 8t-8.5 15l0.5 0.5t0.5 1.5v1v1
q1 0 1 1v1q-11 -8 -21 -14t-20 -9q-9 -3 -17.5 -4t-17.5 -1q-37 0 -54 24.5t-18 53.5v1.5v1.5v4.5t1 5.5q1 12 5 24t9 20q0 1 0.5 2t1.5 2q9 11 25 18t33 13q4 1 8.5 2t8.5 2q17 6 30.5 12t18.5 15q4 9 5.5 17.5t1.5 14.5q0 20 -13.5 32t-29.5 15q-2 1 -4.5 1h-4.5h-2.5
h-2.5q-17 -2 -31 -14.5t-15 -38.5v1zM153 527q-8 -3 -17.5 -6t-19.5 -7q-9 -3 -17.5 -7t-15.5 -7q-7 -5 -12.5 -8.5t-7.5 -7.5q-6 -11 -9.5 -22t-3.5 -20q0 -22 14.5 -36.5t31.5 -15.5h1.5h1.5q3 0 5.5 0.5t4.5 0.5q15 4 28 18.5t16 40.5v77v0z" />
    <glyph glyph-name="ydieresis" unicode="&#xab;" horiz-adv-x="432" 
d="M353 298l-89 -68l89 -64v-61l-130 96v56l130 103v-62v0zM187 305l-89 -68l89 -64v-62l-130 97v56l130 103v-62v0z" />
    <glyph glyph-name="emdash" unicode="&#xac;" 
 />
    <glyph glyph-name="uni00AD" unicode="&#xad;" horiz-adv-x="500" 
 />
    <glyph glyph-name="registered" unicode="&#xae;" horiz-adv-x="696" 
d="M36 465q52 97 119 147t137 62q12 2 24.5 3t24.5 1q122 0 222.5 -83.5t115.5 -194.5l2 -14t1 -14q1 -12 1.5 -23.5t0.5 -21.5q0 -154 -91 -242t-240 -97h-19q-130 0 -226 101.5t-96 243.5q0 18 2 37t6 38q3 14 7 28t9 28v1zM57 388q0 -5 -0.5 -9.5t-0.5 -8.5
q0 -5 -0.5 -9.5t-0.5 -8.5q0 -166 89 -242.5t197 -76.5q11 0 21.5 1t21.5 2q38 5 75 19t68 35q53 41 82 105t29 133q0 9 -0.5 18.5t-1.5 19.5q-2 16 -5 31.5t-8 30.5q-34 89 -111.5 147.5t-166.5 58.5q-13 0 -26 -1.5t-27 -4.5q-17 -4 -34.5 -11t-34.5 -16
q-8 -5 -16.5 -10.5t-17.5 -11.5q-45 -34 -84.5 -84t-47.5 -108v1zM230 520q5 -1 10 -1t10 -1h5.5h4.5q8 0 15.5 -0.5t14.5 -0.5l86 1q65 -1 100 -15.5t44 -74.5v-3.5v-3.5v-3.5t1 -3.5v-6v-6q0 -43 -32 -67t-88 -24l119 -172h-55l-112 173h-82v-180h-41v388v0zM408 485h-137
v-132h137q30 -1 47 17.5t20 40.5v4v4v2.5v2.5q-2 22 -18 40.5t-49 19.5v1z" />
    <glyph glyph-name="glyph263" unicode="&#xaf;" 
 />
    <glyph glyph-name="glyph264" unicode="&#xb0;" 
 />
    <glyph glyph-name="mu" unicode="&#xb1;" 
 />
    <glyph glyph-name="uni00B2" unicode="&#xb2;" 
 />
    <glyph glyph-name="uni00B3" unicode="&#xb3;" 
 />
    <glyph glyph-name="acute" unicode="&#xb4;" horiz-adv-x="267" 
d="M187 657h70l-125 -124h-48l103 124v0z" />
    <glyph glyph-name="oslash" unicode="&#xb5;" 
 />
    <glyph glyph-name="paragraph" unicode="&#xb6;" horiz-adv-x="493" 
d="M396 657v-751h-55v696h-89v-696h-56v413q-74 10 -111.5 57t-41.5 102v4.5v5.5q0 63 42.5 115.5t116.5 52.5l194 1v0z" />
    <glyph glyph-name="glyph265" unicode="&#xb7;" 
 />
    <glyph glyph-name="glyph121" unicode="&#xb8;" horiz-adv-x="267" 
d="M132 2h34l-41 -48h3.5h3.5q2 1 3.5 1h3.5q3 1 6 1.5t6 0.5q36 0 54 -17.5t18 -40.5q0 -3 -0.5 -6t-0.5 -6q-6 -26 -32.5 -47.5t-69.5 -21.5q-16 0 -35.5 4t-41.5 15l20 27q14 -6 26 -9t22 -3q21 0 36 9.5t21 21.5q2 3 3 6t1 6q0 10 -12.5 19t-39.5 9q-4 0 -9 -0.5
t-11 -1.5q-2 -1 -4.5 -1.5t-4.5 -0.5l-14 14l8.5 11t19.5 25q9 11 17 21t10 11v1z" />
    <glyph glyph-name="uni00B9" unicode="&#xb9;" 
 />
    <glyph glyph-name="Agrave" unicode="&#xba;" horiz-adv-x="226" 
d="M22 326h165v-34h-165v34v0zM9 527q0 3 0.5 7.5t0.5 9.5q1 10 1.5 21t2.5 22q5 32 25 58t74 26l12 1q41 -1 61 -33t23 -70v-6.5v-6.5v-4v-4v-2v-2q-1 -3 -1 -6v-6v-21q0 -13 -1 -27t-3 -29q-6 -32 -24.5 -58t-59.5 -26q-1 0 -3 0.5t-4 0.5h-1h-2q-1 1 -2.5 1h-2.5
q-50 4 -69.5 33t-23.5 64q-2 15 -2.5 29.5t-0.5 26.5v1zM173 520v32q0 5 -0.5 12t-0.5 14q-3 24 -16 44t-45 20q-33 0 -48 -22t-19 -48q-2 -11 -2.5 -21.5t-0.5 -19.5q0 -3 0.5 -5.5t0.5 -4.5q0 -3 0.5 -5t0.5 -4q0 -46 8 -73.5t54 -38.5h1h3v-1v0h2h2h2.5h2.5q21 3 38 30.5
t17 89.5v1z" />
    <glyph glyph-name="Ydieresis" unicode="&#xbb;" horiz-adv-x="432" 
d="M244 360l123 -89v-70l-123 -96v55l89 77l-89 68v55v0zM77 367l124 -89v-70l-124 -97v55l89 78l-89 68v55v0z" />
    <glyph glyph-name="onequarter" unicode="&#xbc;" 
 />
    <glyph glyph-name="glyph243" unicode="&#xbd;" 
 />
    <glyph glyph-name="threequarters" unicode="&#xbe;" 
 />
    <glyph glyph-name="oe" unicode="&#xbf;" horiz-adv-x="349" 
d="M153 333h48v-24q0 -60 -20.5 -99.5t-45.5 -75.5q0 -1 -0.5 -2t-1.5 -2q-23 -33 -42 -69.5t-21 -86.5l-1 -3q0 -34 29.5 -62.5t64.5 -32.5q2 -1 4.5 -1h5.5q34 0 62 29.5t29 103.5l55 1v-14q0 -13 -3.5 -34.5t-12.5 -45.5q-13 -35 -42 -64t-81 -29q-19 0 -43 5t-53 17
q-36 19 -52 50t-17 63v3.5v3.5q0 10 1 19.5t3 18.5q6 36 22 70.5t33 61.5q8 12 16 21.5t15 16.5q26 26 37 55.5t11 69.5v36v0zM214 408h-61v77h61v-77v0z" />
    <glyph glyph-name="currency" unicode="&#xc0;" horiz-adv-x="432" 
d="M180 657h64l178 -655h-62l-48 206h-194l-55 -206h-61l178 655v0zM208 595l-76 -331h166l-90 331v0zM173 837l105 -123h-55l-125 123h75v0z" />
    <glyph glyph-name="breve" unicode="&#xc1;" horiz-adv-x="432" 
d="M187 657h63l179 -655h-62l-48 206h-194l-55 -206h-61l178 655v0zM216 595l-77 -331h166l-89 331v0zM264 837h69l-125 -123h-48l104 123v0z" />
    <glyph glyph-name="tilde" unicode="&#xc2;" horiz-adv-x="432" 
d="M180 657h64l178 -655h-62l-48 206h-194l-55 -206h-61l178 655v0zM208 595l-76 -331h166l-90 331v0zM244 823l96 -123h-62l-70 89l-69 -89h-62l96 123h71v0z" />
    <glyph glyph-name="guilsinglleft" unicode="&#xc3;" horiz-adv-x="432" 
d="M180 657h64l178 -655h-62l-48 206h-194l-55 -206h-61l178 655v0zM208 595l-76 -331h166l-90 331v0zM70 707q14 49 35 67.5t44 18.5q11 0 22 -3t23 -8q5 -1 10 -3.5t10 -4.5q16 -7 31.5 -13t27.5 -6q13 0 24 10.5t15 36.5l41 1q-9 -49 -28 -68.5t-40 -21.5h-3h-2
q-12 0 -24 3t-25 8l-10 4t-9 4q-18 6 -34 12t-29 6q-14 0 -24.5 -9t-13.5 -35l-41 1v0z" />
    <glyph glyph-name="Adieresis" unicode="&#xc4;" horiz-adv-x="432" 
d="M180 657h64l178 -655h-62l-48 206h-194l-55 -206h-61l178 655v0zM208 595l-76 -331h166l-90 331v0zM118 796h55v-89h-55v89v0zM264 796h55v-89h-55v89v0z" />
    <glyph glyph-name="Aring" unicode="&#xc5;" horiz-adv-x="432" 
d="M429 2h-62l-48 199h-201l-55 -199h-54l178 648q-24 0 -40 23.5t-17 51.5v1.5v1.5v4v4q3 27 23.5 50t62.5 23l7 1q41 -1 61 -24t23 -50v-4v-4v-3.5v-2.5q-2 -26 -15 -47.5t-35 -25.5l172 -647v0zM223 575l-91 -318h173l-82 318v0zM278 727q0 25 -15.5 37.5t-33.5 15.5
q-3 1 -6.5 1h-6.5q-22 0 -39 -14.5t-17 -40.5t16 -41t35 -17h2.5h2.5h3.5h2.5q20 2 36.5 17t19.5 41v1z" />
    <glyph glyph-name="Oslash" unicode="&#xc6;" horiz-adv-x="637" 
d="M235 650h365v-48h-242v-235h222v-55h-222v-262h249v-48h-303v192h-167l-75 -192h-55l228 648v0zM276 595l-125 -345h153v345h-28v0z" />
    <glyph glyph-name="Ccedilla" unicode="&#xc7;" horiz-adv-x="493" 
d="M424 465h-55q-5 68 -41.5 103t-80.5 35h-7t-7 -1q-39 -5 -74 -38t-46 -93q-3 -15 -5 -31l-4 -32q-1 -17 -2 -33t-1 -31q0 -80 15.5 -150t37.5 -118q1 -1 1.5 -2.5t1.5 -2.5q11 -15 36.5 -28t55.5 -13q4 0 8.5 0.5t8.5 0.5q41 6 75.5 47t34.5 135l55 1v-15q0 -18 -5 -44.5
t-16 -55.5q-19 -45 -56.5 -81.5t-101.5 -36.5l-20 -27h13.5t15.5 -1q12 -1 22.5 -4t16.5 -9q5 -5 7.5 -7t4.5 -3l2 -2l2 -2q1 -2 2 -5t3 -8q2 -6 3 -11l2 -10v-3.5v-3.5q0 -29 -26.5 -43.5t-57.5 -18.5q-6 0 -11.5 -0.5t-10.5 -0.5q-25 0 -45.5 4t-26.5 11l13 21
q17 -5 31 -7t26 -2q28 0 42 11t16 24v2.5v2.5q0 13 -13 24.5t-33 11.5h-0.5h-0.5h-0.5h-0.5q-5 0 -11 -2.5t-13 -5.5l-4 -2l-4 -2l-21 13l50 55q-104 16 -139.5 100.5t-40.5 250.5q0 4 -0.5 8t-0.5 8t-0.5 8t-0.5 8q0 155 58.5 222.5t128.5 71.5h4h4q70 0 128 -51.5
t58 -127.5v-14v0z" />
    <glyph glyph-name="ring" unicode="&#xc8;" horiz-adv-x="390" 
d="M57 657h303v-62h-235v-214h208v-62h-208v-256h235v-61h-303v655v0zM160 837l104 -123h-56l-124 123h76v0z" />
    <glyph glyph-name="Eacute" unicode="&#xc9;" horiz-adv-x="390" 
d="M50 657h303v-62h-235v-214h208v-62h-208v-256h235v-61h-303v655v0zM230 844h68l-125 -124h-48l105 124v0z" />
    <glyph glyph-name="macron" unicode="&#xca;" horiz-adv-x="390" 
d="M50 657h303v-62h-235v-214h208v-62h-208v-256h235v-61h-303v655v0zM223 837l96 -123h-62l-70 89l-69 -89h-61l96 123h70v0z" />
    <glyph glyph-name="dotaccent" unicode="&#xcb;" horiz-adv-x="390" 
d="M50 657h303v-62h-235v-214h208v-62h-208v-256h235v-61h-303v655v0zM125 810h55v-90h-55v90v0zM271 810h55v-90h-55v90v0z" />
    <glyph glyph-name="caron" unicode="&#xcc;" horiz-adv-x="205" 
d="M67 657h62v-655h-62v655v0zM53 844l103 -124h-55l-123 124h75v0z" />
    <glyph glyph-name="cedilla" unicode="&#xcd;" horiz-adv-x="205" 
d="M67 657h62v-655h-62v655v0zM149 837h71l-126 -123h-48l103 123v0z" />
    <glyph glyph-name="hungarumlaut" unicode="&#xce;" horiz-adv-x="205" 
d="M67 657h62v-655h-62v655v0zM129 830l97 -123h-63l-69 89l-68 -89h-62l96 123h69v0z" />
    <glyph glyph-name="ogonek" unicode="&#xcf;" horiz-adv-x="205" 
d="M67 657h62v-655h-62v655v0zM-9 803h55v-89h-55v89v0zM136 803h54v-89h-54v89v0z" />
    <glyph glyph-name="glyph232" unicode="&#xd0;" 
 />
    <glyph glyph-name="Ntilde" unicode="&#xd1;" horiz-adv-x="493" 
d="M51 2v655h76l139 -311l96 -248v559h62v-655h-69l-242 566v-566h-62v0zM99 714q14 49 35.5 67.5t43.5 18.5q10 0 20 -2.5t20 -5.5q6 -3 12.5 -5.5t12.5 -5.5q17 -7 32 -13t27 -6q13 0 24 10.5t15 36.5l42 1q-10 -51 -30.5 -71t-43.5 -20q-12 0 -24 3t-25 8l-10 4t-9 4
q-18 7 -34 13t-29 6t-24 -9t-13 -35l-42 1v0z" />
    <glyph glyph-name="scaron" unicode="&#xd2;" 
 />
    <glyph glyph-name="Lslash" unicode="&#xd3;" horiz-adv-x="493" 
d="M238 666q119 -8 156 -96t37 -238q0 -28 -0.5 -62t-4.5 -68q-10 -81 -50 -147.5t-144 -66.5q-100 0 -137 69.5t-46 153.5q-3 34 -3.5 67t-0.5 61q0 5 -0.5 10.5t-0.5 11.5t-0.5 13t-0.5 14q0 22 1.5 48t6.5 52q12 65 52 119t135 58v1zM238 616q-88 -1 -113.5 -83
t-25.5 -201q0 -25 1 -54.5t5 -60.5q8 -67 35.5 -122.5t91.5 -59.5l1 -0.5t2 -0.5t2 -0.5l1 -0.5q69 0 97 54t36 118q3 26 4 51.5t1 47.5v49q0 21 -1.5 49.5t-6.5 57.5q-9 55 -37.5 102t-92.5 53v1zM280 823h68l-123 -123h-50l105 123v0z" />
    <glyph glyph-name="lslash" unicode="&#xd4;" horiz-adv-x="493" 
d="M266 666q119 -8 156.5 -96t37.5 -238q0 -28 -0.5 -62t-5.5 -68q-9 -81 -49.5 -147.5t-145.5 -66.5q-100 0 -137 69.5t-46 153.5q-3 34 -3.5 67t-0.5 61q0 5 -0.5 10.5t-0.5 11.5t-0.5 13t-0.5 14q0 22 1.5 48t6.5 52q12 65 52.5 119t135.5 58v1zM266 616
q-88 -1 -113.5 -83t-25.5 -201q0 -25 1 -54.5t5 -60.5q8 -67 35 -122.5t91 -59.5q1 0 2 -0.5t2 -0.5l1 -0.5t2 -0.5q69 0 97 54t35 118q3 26 4 51.5t1 47.5v49q0 21 -1.5 49.5t-5.5 57.5q-10 55 -38.5 102t-91.5 53v1zM280 823l96 -123h-62l-69 89l-70 -89h-62l96 123h71v0z
" />
    <glyph glyph-name="guilsinglright" unicode="&#xd5;" horiz-adv-x="493" 
d="M238 666q119 -8 156 -96t37 -238q0 -28 -0.5 -62t-4.5 -68q-10 -81 -50 -147.5t-144 -66.5q-100 0 -137 69.5t-46 153.5q-3 34 -3.5 67t-0.5 61q0 5 -0.5 10.5t-0.5 11.5t-0.5 13t-0.5 14q0 22 1.5 48t6.5 52q12 65 52 119t135 58v1zM238 616q-88 -1 -113.5 -83
t-25.5 -201q0 -25 1 -54.5t5 -60.5q8 -67 35.5 -122.5t91.5 -59.5l1 -0.5t2 -0.5t2 -0.5l1 -0.5q69 0 97 54t36 118q3 26 4 51.5t1 47.5v49q0 21 -1.5 49.5t-6.5 57.5q-9 55 -37.5 102t-92.5 53v1zM93 707q14 49 35 67.5t44 18.5q10 0 21 -3t22 -7q5 -2 10.5 -4.5t11.5 -4.5
q16 -7 31 -13t27 -6q13 0 24 10.5t15 36.5l42 1q-9 -51 -30 -70.5t-44 -19.5q-11 0 -23 3t-24 7q-5 2 -10.5 4t-10.5 5q-18 6 -33.5 12t-28.5 6q-14 0 -25 -9t-13 -35l-41 1v0z" />
    <glyph glyph-name="Odieresis" unicode="&#xd6;" horiz-adv-x="493" 
d="M245 666q119 -8 156.5 -96t37.5 -238q0 -28 -0.5 -62t-5.5 -68q-9 -81 -49.5 -147.5t-145.5 -66.5q-100 0 -137 69.5t-46 153.5q-3 34 -3.5 67t-0.5 61v10.5v11.5q-1 6 -1 13v14q0 22 1.5 48t6.5 52q12 65 52 119t135 58v1zM245 616q-88 -1 -113.5 -83t-25.5 -201
q0 -25 1 -54.5t5 -60.5q8 -67 35 -122.5t91 -59.5h1.5t1.5 -1h0.5h0.5q1 0 2 -0.5l1 -0.5q69 0 97 54t36 118q3 26 4 51.5t1 47.5v49q0 21 -1.5 49.5t-6.5 57.5q-9 55 -37.5 102t-92.5 53v1zM134 803h55v-89h-55v89v0zM280 803h54v-89h-54v89v0z" />
    <glyph glyph-name="multiply" unicode="&#xd7;" 
 />
    <glyph glyph-name="plusminus" unicode="&#xd8;" horiz-adv-x="493" 
d="M72 98q-6 18 -10.5 38t-7.5 40q-6 38 -8.5 74.5t-2.5 69.5q0 29 1.5 54.5t2.5 45.5q2 20 3 33.5t1 17.5v10t1 11q6 67 51.5 123t128.5 56q12 0 25.5 -1.5t26.5 -4.5q28 -6 53 -19.5t39 -37.5l41 71l43 -22l-57 -89q8 -19 13 -57t9 -80q3 -45 4.5 -84.5t1.5 -55.5
q0 -22 -2 -46.5t-6 -49.5q-12 -75 -51 -137.5t-120 -62.5q-63 0 -97.5 15t-55.5 46l-48 -75l-34 28l55 89v0zM362 492l-228 -374q18 -38 43 -56.5t52 -21.5h4h4h4h4q49 5 90 56.5t41 132.5q0 12 -0.5 54t-2.5 91q-1 33 -4 64.5t-7 52.5v1zM341 554q-14 23 -30.5 38.5
t-34.5 23.5q-10 5 -20 7t-19 2q-50 0 -90.5 -49t-40.5 -112v-19.5v-25.5q-1 -15 -1 -32v-36q0 -39 1.5 -86.5t6.5 -99.5l228 389v0z" />
    <glyph glyph-name="Thorn" unicode="&#xd9;" horiz-adv-x="493" 
d="M58 657h62v-470q0 -78 25.5 -111.5t92.5 -33.5q57 0 90.5 27.5t33.5 109.5v478h62v-504q0 -94 -54.5 -129.5t-131.5 -35.5h-17q-76 0 -119.5 48t-43.5 150v471v0zM202 830l105 -123h-55l-125 123h75v0z" />
    <glyph glyph-name="Eth" unicode="&#xda;" horiz-adv-x="493" 
d="M65 657h62v-470q0 -78 25 -111.5t93 -33.5q57 0 90.5 27.5t33.5 109.5v478h62v-504q0 -94 -54.5 -129.5t-131.5 -35.5h-17q-76 0 -119.5 48t-43.5 150v471v0zM286 837h69l-123 -123h-50l104 123v0z" />
    <glyph glyph-name="eth" unicode="&#xdb;" horiz-adv-x="493" 
d="M58 657h62v-470q0 -78 25.5 -111.5t92.5 -33.5q57 0 90.5 27.5t33.5 109.5v478h62v-504q0 -94 -54.5 -129.5t-131.5 -35.5h-17q-76 0 -119.5 48t-43.5 150v471v0zM280 830l96 -123h-62l-69 89l-70 -89h-62l96 123h71v0z" />
    <glyph glyph-name="Udieresis" unicode="&#xdc;" horiz-adv-x="493" 
d="M51 657h62v-470q0 -78 25.5 -111.5t93.5 -33.5q56 0 89.5 27.5t33.5 109.5v478h62v-504q0 -94 -54 -129.5t-131 -35.5h-18q-76 0 -119.5 48t-43.5 150v471v0zM134 803h55v-89h-55v89v0zM280 803h54v-89h-54v89v0z" />
    <glyph glyph-name="Yacute" unicode="&#xdd;" 
 />
    <glyph glyph-name="glyph236" unicode="&#xde;" 
 />
    <glyph glyph-name="germandbls" unicode="&#xdf;" horiz-adv-x="390" 
d="M105 2h-48v545q4 64 38 93.5t73 35.5q5 0 10.5 0.5t10.5 0.5q27 0 51.5 -8t37.5 -20q4 -3 9.5 -11t10.5 -19q11 -21 19.5 -50.5t8.5 -61.5q0 -7 -0.5 -14.5t-1.5 -15.5q-5 -27 -19 -52.5t-41 -44.5q31 -9 48 -32.5t25 -48.5q5 -18 7 -34.5t2 -28.5q0 -3 0.5 -5.5
t0.5 -5.5q1 -13 2 -25.5t1 -23.5q0 -94 -37.5 -142t-84.5 -48q-6 0 -13 1t-14 3q-9 3 -18 7t-17 11v55q16 -17 31 -26t26 -9q34 0 54 49.5t21 108.5v1.5v1.5v2.5v3.5q-1 61 -27 112.5t-82 51.5l-16 1v41q1 -1 2 -1h2h1.5h0.5q2 -1 3.5 -1h2.5q49 0 72 33.5t23 74.5
q0 5 -0.5 9.5t-0.5 8.5q-4 40 -25 73.5t-53 36.5l-11 1q-31 -1 -48.5 -16.5t-25.5 -34.5q-7 -14 -9 -27t-2 -19v-537v0z" />
    <glyph glyph-name="agrave" unicode="&#xe0;" horiz-adv-x="349" 
d="M36 367v0.5v1.5q1 51 29 93.5t95 42.5q83 0 110.5 -37t27.5 -116v-261q0 -37 4.5 -43t30.5 -6v-40q-5 -1 -10.5 -1.5t-9.5 -0.5h-9h-7q-28 0 -38.5 8.5t-14.5 40.5q-1 -2 -2.5 -3.5t-2.5 -3.5q-14 -19 -35.5 -33t-78.5 -14q-49 0 -76 33.5t-27 87.5q0 10 1.5 20.5
t3.5 21.5v1v2q1 2 1.5 5t0.5 6q10 45 40.5 68t65.5 35q11 5 21.5 8.5t20.5 6.5q28 10 47.5 21.5t19.5 33.5q0 74 -20 96.5t-58 22.5q-41 0 -55.5 -25.5t-19.5 -72.5l-55 1v0zM244 278q-5 -10 -17 -17t-27 -13q-9 -4 -18.5 -7.5t-19.5 -7.5q-32 -13 -58.5 -34t-26.5 -61
q0 -41 11.5 -68.5t57.5 -27.5q47 0 72.5 34.5t25.5 95.5v106v0zM118 657l105 -124h-57l-123 124h75v0z" />
    <glyph glyph-name="aacute" unicode="&#xe1;" horiz-adv-x="349" 
d="M36 367v0.5v1.5q1 51 29 93.5t95 42.5q83 0 110.5 -37t27.5 -116v-261q0 -37 4.5 -43t30.5 -6v-40q-5 -1 -10.5 -1.5t-9.5 -0.5h-9h-7q-28 0 -38.5 8.5t-14.5 40.5q-1 -2 -2.5 -3.5t-2.5 -3.5q-14 -19 -35.5 -33t-78.5 -14q-49 0 -76 33.5t-27 87.5q0 10 1.5 20.5
t3.5 21.5v1v2q1 2 1.5 5t0.5 6q10 45 40.5 68t65.5 35q11 5 21.5 8.5t20.5 6.5q28 10 47.5 21.5t19.5 33.5q0 74 -21 96.5t-57 22.5q-41 0 -55.5 -25.5t-19.5 -72.5l-55 1v0zM244 278q-5 -10 -17 -17t-27 -13q-9 -4 -18.5 -7.5t-19.5 -7.5q-32 -13 -58.5 -34t-26.5 -61
q0 -41 11.5 -68.5t57.5 -27.5q47 0 72.5 34.5t25.5 95.5v106v0zM223 666h69l-126 -126h-48l105 126v0z" />
    <glyph glyph-name="acircumflex" unicode="&#xe2;" horiz-adv-x="349" 
d="M9 367v0.5v1.5q1 51 29 93.5t94 42.5q84 0 111.5 -37t27.5 -116v-261q0 -37 4.5 -43t29.5 -6v-40q-2 -1 -3.5 -1h-3.5q-3 0 -6 -0.5t-6 -0.5h-9.5h-7.5q-28 0 -39 8.5t-16 40.5q-1 -2 -2.5 -3.5t-2.5 -3.5q-13 -19 -33.5 -33t-77.5 -14q-49 0 -74.5 33.5t-25.5 87.5
q0 10 0.5 20.5t1.5 21.5q0 3 0.5 6.5t1.5 7.5q9 46 39.5 68.5t64.5 35.5q11 4 21.5 7.5t20.5 6.5q28 10 47 21.5t19 33.5q0 74 -19.5 96.5t-55.5 22.5q-41 0 -56 -25.5t-20 -72.5l-54 1v0zM214 278q-4 -10 -16 -17t-27 -13q-9 -4 -18.5 -7.5t-19.5 -7.5q-31 -14 -57 -35
t-26 -60q0 -41 11 -68.5t57 -27.5q47 0 71.5 34.5t24.5 95.5v106v0zM201 672l97 -125h-61l-71 89l-68 -89h-62l96 125h69v0z" />
    <glyph glyph-name="atilde" unicode="&#xe3;" horiz-adv-x="349" 
d="M29 367v0.5v1.5q1 51 29 93.5t95 42.5q83 0 111 -37t28 -116v-261q0 -37 4.5 -43t29.5 -6v-40q-5 -1 -10.5 -1.5t-9.5 -0.5h-9h-7q-28 0 -38.5 8.5t-14.5 40.5q-2 -3 -4 -5.5t-4 -4.5q-15 -18 -36 -31t-75 -13q-49 0 -76 33.5t-27 87.5q0 10 1.5 20.5t3.5 21.5v1v2
q1 2 1.5 5t0.5 6q10 45 40.5 68t65.5 35q11 5 21.5 8.5t20.5 6.5q28 10 47.5 21.5t19.5 33.5q0 74 -20.5 96.5t-56.5 22.5q-41 0 -56 -25.5t-20 -72.5l-55 1v0zM237 278q-5 -10 -17 -17t-28 -13q-9 -4 -18 -7.5t-19 -7.5q-32 -13 -58.5 -34t-26.5 -61q0 -41 11.5 -68.5
t57.5 -27.5q47 0 72.5 34.5t25.5 95.5v106v0zM29 540q14 49 35 68t44 19q11 0 22 -3t23 -8q5 -1 10 -3.5t10 -4.5q16 -7 31.5 -13t27.5 -6q13 0 24 10.5t15 35.5l41 1q-9 -51 -29 -70.5t-43 -19.5q-12 0 -24.5 3.5t-25.5 7.5l-10 4t-9 4q-18 7 -34 13t-29 6
q-14 0 -24.5 -9.5t-13.5 -35.5l-41 1v0z" />
    <glyph glyph-name="adieresis" unicode="&#xe4;" horiz-adv-x="349" 
d="M36 367v0.5v1.5q1 51 29 93.5t95 42.5q83 0 110.5 -37t27.5 -116v-261q0 -37 4.5 -43t30.5 -6v-40q-5 -1 -10.5 -1.5t-9.5 -0.5h-9h-7q-28 0 -38.5 8.5t-14.5 40.5q-1 -2 -2.5 -3.5t-2.5 -3.5q-14 -19 -35.5 -33t-78.5 -14q-49 0 -76 33.5t-27 87.5q0 10 1.5 20.5
t3.5 21.5v1v2q1 2 1.5 5t0.5 6q10 45 40.5 68t65.5 35q11 5 21.5 8.5t20.5 6.5q28 10 47.5 21.5t19.5 33.5q0 74 -21 96.5t-57 22.5q-41 0 -55.5 -25.5t-19.5 -72.5l-55 1v0zM244 278q-5 -10 -17 -17t-27 -13q-9 -4 -18.5 -7.5t-19.5 -7.5q-32 -13 -58.5 -34t-26.5 -61
q0 -41 11.5 -68.5t57.5 -27.5q47 0 72.5 34.5t25.5 95.5v106v0zM77 630h55v-90h-55v90v0zM223 630h55v-90h-55v90v0z" />
    <glyph glyph-name="aring" unicode="&#xe5;" horiz-adv-x="349" 
d="M36 367v0.5v1.5q1 51 29 93.5t95 42.5q83 0 110.5 -37t27.5 -116v-261q0 -37 4.5 -43t30.5 -6v-40q-5 -1 -10.5 -1.5t-9.5 -0.5h-9h-7q-28 0 -38.5 8.5t-14.5 40.5q-1 -2 -2.5 -3.5t-2.5 -3.5q-14 -19 -35.5 -33t-78.5 -14q-49 0 -76 33.5t-27 87.5q0 10 1.5 20.5
t3.5 21.5v1v2q1 2 1.5 5t0.5 6q10 45 40.5 68t65.5 35q11 5 21.5 8.5t20.5 6.5q28 10 47.5 21.5t19.5 33.5q0 74 -21 96.5t-57 22.5q-41 0 -55.5 -25.5t-19.5 -72.5l-55 1v0zM244 278q-5 -10 -17 -17t-27 -13q-9 -4 -18.5 -7.5t-19.5 -7.5q-32 -13 -58.5 -34t-26.5 -61
q0 -41 11.5 -68.5t57.5 -27.5q47 0 72.5 34.5t25.5 95.5v106v0zM180 700q31 -1 53.5 -25.5t29.5 -54.5q0 -1 0.5 -2.5t0.5 -2.5v-15v-2.5v-1.5q-1 -26 -20 -48t-64 -22h-2t-2 -1v0v0q-2 0 -3 -0.5l-1 -0.5q-44 0 -65 24.5t-21 55.5v6t1 6q4 31 25.5 57t55.5 26l12 1v0z
M173 666q-24 -7 -38 -19.5t-17 -26.5v-3v-2v-2.5v-3.5h-1v0v-3.5v-2.5q0 -3 0.5 -5.5t1.5 -5.5q4 -10 15.5 -19.5t31.5 -12.5q2 0 4 -0.5t4 -1.5t4 -1.5t4 -0.5q22 0 35 15t15 34v2.5v2.5q0 3 -0.5 5.5t-0.5 5.5q-4 16 -18 30t-40 14v1z" />
    <glyph glyph-name="Otilde" unicode="&#xe6;" horiz-adv-x="535" 
d="M24 160q5 45 37 70t70 40q16 6 32.5 11.5t29.5 10.5q19 7 31.5 14.5t13.5 18.5q3 11 4.5 20.5t1.5 18.5q0 41 -22 65.5t-49 30.5q-4 1 -8.5 1.5t-8.5 0.5q-25 0 -46 -18t-21 -56q0 -2 0.5 -5t1.5 -6v-0.5t1 -1.5q0 -2 0.5 -4.5t0.5 -4.5l-55 1l-0.5 1.5t-0.5 3.5
t-0.5 3.5t-0.5 2.5q0 7 1 14t3 14q8 34 30.5 63t49.5 36q7 2 18 2.5t25 0.5q9 0 19 -0.5t21 -2.5q24 -4 46 -15t31 -33q1 2 2 3.5t3 3.5q11 17 35 30.5t56 13.5q11 0 24.5 -2t27.5 -7q4 -2 9 -4t9 -4q43 -24 57.5 -73.5t16.5 -103.5q1 -17 1 -33v-32l-228 1q0 -6 -1 -12
t-1 -12q-1 -1 -1 -2v-2q-1 -7 -1.5 -14t-0.5 -13v-8.5v-9.5q3 -54 25 -99.5t70 -45.5q2 0 4.5 0.5t4.5 1.5h3t3 1h2.5h2.5q35 7 46.5 29.5t13.5 48.5q0 5 0.5 9.5t0.5 9.5q1 7 1.5 14t1.5 13l54 1v-16q0 -74 -27.5 -105.5t-61.5 -40.5q-15 -5 -29.5 -7t-26.5 -3h-12
q-25 0 -43.5 12.5t-32.5 28.5q-7 7 -12 14t-10 13q-17 -22 -37 -36.5t-40 -21.5q-14 -5 -27 -7.5t-26 -2.5q-34 0 -61 13.5t-37 33.5q-7 11 -10 33t-4 46v23.5v21.5v1zM238 257q-11 -7 -24.5 -12.5t-27.5 -11.5q-2 0 -4 -1l-4 -2q-30 -11 -56 -24.5t-36 -33.5
q-3 -6 -6 -13.5t-5 -14.5q-3 -7 -4 -14.5t-1 -13.5q0 -36 22 -63t54 -27q8 0 17 2.5t18 7.5q7 3 14 8.5t14 11.5q22 20 25.5 66t3.5 134v1zM467 298q0 53 -6 79t-13 38q-4 6 -7.5 9.5l-6.5 6.5q-1 1 -1.5 2t-1.5 2q-7 9 -18.5 15t-23.5 9q-3 0 -6.5 0.5t-6.5 0.5h-4h-4
q-21 -3 -40.5 -18.5t-27.5 -47.5q-1 -4 -2 -9.5t-2 -12.5l-2 -12l-2 -12q-1 -7 -1.5 -14t-0.5 -13v-4t1 -4v-5t1 -4q0 -2 0.5 -3.5t0.5 -3.5l174 1v0z" />
    <glyph glyph-name="ccedilla" unicode="&#xe7;" horiz-adv-x="349" 
d="M36 333q8 80 45.5 121t80.5 48q4 0 9 0.5t9 0.5q50 0 91 -39t41 -105v-19h-48q-5 40 -15.5 67t-47.5 43q-3 1 -5.5 2t-5.5 2q-6 1 -12.5 2t-11.5 1q-34 0 -52 -31.5t-24 -69.5q-3 -17 -4.5 -34t-1.5 -31q0 -10 -0.5 -22.5t-0.5 -25.5q-1 -5 -1 -11v-11q-1 -8 -1 -15.5
v-14.5v-2.5v-3.5q1 -56 19.5 -103t79.5 -47q6 0 13 1t14 3q21 6 39 32t18 88l55 1q0 -12 -2.5 -35t-10.5 -49q-12 -33 -39 -60.5t-78 -27.5h-9l-27 -34q3 0 6 1t7 1v0h1q4 1 8.5 2t8.5 1q35 0 52.5 -19.5t17.5 -42.5q0 -4 -0.5 -7.5t-1.5 -7.5q-3 -17 -14.5 -31.5
t-29.5 -20.5q-9 -3 -22.5 -5t-27.5 -3h-3.5h-3.5h-5.5h-5.5q-18 1 -35 6t-28 16l14 20q15 -5 29 -6.5t24 -1.5q24 0 38 9t18 20q1 3 1.5 5.5t0.5 4.5q0 12 -12 21.5t-34 9.5q-6 0 -14 -2t-17 -5l-20 14l48 55q-7 1 -15 3.5t-15 6.5q-21 8 -40 25t-26 39q-8 18 -13 37t-8 38
t-4 38t-1 37t1 35t2 33q0 15 1 28.5t1 23.5v1z" />
    <glyph glyph-name="egrave" unicode="&#xe8;" horiz-adv-x="349" 
d="M29 244q0 149 38.5 205t105.5 56q74 0 107.5 -61t33.5 -147q0 -6 -0.5 -12t-0.5 -12v-4v-4q-1 -4 -1 -8v-8l-228 1q0 -1 -0.5 -2t-0.5 -2q0 -2 -0.5 -3.5t-0.5 -3.5q0 -13 1.5 -39t7.5 -55q9 -39 27.5 -71t54.5 -32q39 0 58.5 25.5t23.5 56.5q1 6 1.5 11.5t0.5 11.5v19
h55v-15q0 -80 -39.5 -115.5t-86.5 -39.5q-3 -1 -6.5 -1h-6.5q-65 3 -94.5 44t-40.5 91q-7 33 -8 63.5t-1 49.5v1zM257 298q0 93 -24.5 125t-54.5 34h-2.5h-2.5q-41 0 -62.5 -36t-26.5 -124l173 1v0zM132 666l105 -126h-57l-123 126h75v0z" />
    <glyph glyph-name="eacute" unicode="&#xe9;" horiz-adv-x="349" 
d="M22 244q0 149 38.5 205t105.5 56q74 0 107.5 -61t33.5 -147q0 -6 -0.5 -12t-0.5 -12v-4v-4q-1 -4 -1 -8v-8l-228 1q0 -1 -0.5 -2t-0.5 -2q0 -2 -0.5 -3.5t-0.5 -3.5q0 -13 1.5 -39t7.5 -55q9 -39 27.5 -71t54.5 -32q39 0 58.5 25.5t23.5 56.5q1 6 1.5 11.5t0.5 11.5v19
h55v-15q0 -80 -39.5 -115.5t-86.5 -39.5q-3 -1 -6.5 -1h-6.5q-65 3 -94.5 44t-40.5 91q-7 33 -8 63.5t-1 49.5v1zM250 298q0 97 -26 128t-58 31q-41 0 -62.5 -36t-26.5 -124l173 1v0zM214 666h71l-125 -126h-49l103 126v0z" />
    <glyph glyph-name="ecircumflex" unicode="&#xea;" horiz-adv-x="349" 
d="M29 244q0 149 38.5 205t105.5 56q74 0 107.5 -61t33.5 -147q0 -6 -0.5 -12t-0.5 -12v-4v-4q-1 -4 -1 -8v-8l-228 1q0 -1 -0.5 -2t-0.5 -2q0 -2 -0.5 -3.5t-0.5 -3.5q0 -13 1.5 -39t7.5 -55q9 -39 27.5 -71t54.5 -32q39 0 58.5 25.5t23.5 56.5q1 6 1.5 11.5t0.5 11.5v19
h55v-15q0 -80 -39.5 -115.5t-86.5 -39.5q-3 -1 -6.5 -1h-6.5q-65 3 -94.5 44t-40.5 91q-7 33 -8 63.5t-1 49.5v1zM257 298q0 93 -24.5 125t-54.5 34h-2.5h-2.5q-41 0 -62.5 -36t-26.5 -124l173 1v0zM208 666l97 -126h-61l-71 90l-68 -90h-62l96 126h69v0z" />
    <glyph glyph-name="edieresis" unicode="&#xeb;" horiz-adv-x="349" 
d="M36 244q0 149 38.5 205t105.5 56q74 0 107.5 -61t33.5 -147q0 -6 -0.5 -12t-0.5 -12v-4v-4q-1 -4 -1 -8v-8l-228 1q0 -1 -0.5 -2t-0.5 -2q0 -2 -0.5 -3.5t-0.5 -3.5q0 -13 1.5 -39t7.5 -55q9 -39 27.5 -71t54.5 -32q39 0 58.5 25.5t23.5 56.5q1 6 1.5 11.5t0.5 11.5v19
h55v-15q0 -80 -39.5 -115.5t-86.5 -39.5q-3 -1 -6.5 -1h-6.5q-65 3 -94.5 44t-40.5 91q-7 33 -8 63.5t-1 49.5v1zM264 298q0 97 -26 128t-58 31q-41 0 -62.5 -36t-26.5 -124l173 1v0zM77 636h55v-89h-55v89v0zM223 636h55v-89h-55v89v0z" />
    <glyph glyph-name="igrave" unicode="&#xec;" horiz-adv-x="205" 
d="M60 485h55v-483h-55v483v0zM46 650l103 -123h-55l-123 123h75v0z" />
    <glyph glyph-name="iacute" unicode="&#xed;" horiz-adv-x="205" 
d="M60 485h55v-483h-55v483v0zM129 650h68l-123 -123h-48l103 123v0z" />
    <glyph glyph-name="icircumflex" unicode="&#xee;" horiz-adv-x="205" 
d="M60 485h55v-483h-55v483v0zM115 657l96 -124h-62l-68 90l-69 -90h-62l96 124h69v0z" />
    <glyph glyph-name="idieresis" unicode="&#xef;" horiz-adv-x="205" 
d="M60 485h55v-483h-55v483v0zM-15 623h54v-90h-54v90v0zM129 623h55v-90h-55v90v0z" />
    <glyph glyph-name="glyph233" unicode="&#xf0;" 
 />
    <glyph glyph-name="ntilde" unicode="&#xf1;" horiz-adv-x="390" 
d="M111 485v-41q14 23 40.5 38.5t55.5 18.5q4 1 7.5 1h6.5h2.5h3.5q39 -2 72.5 -32t33.5 -97v-371h-55v379q0 37 -21.5 55.5t-48.5 18.5q-4 0 -8 -0.5t-8 -1.5q-31 -5 -56 -31t-25 -70v-350h-54v483h54v0zM43 533q14 49 35 68t44 19q10 0 21 -3t22 -7q5 -2 10.5 -4.5
t11.5 -4.5q16 -7 31 -13t27 -6h2h2q12 1 22.5 12t13.5 35l41 1q-9 -51 -29 -71t-43 -20q-12 0 -24.5 3.5t-25.5 7.5l-10 4t-9 4q-18 7 -34 13t-29 6q-14 0 -25 -9.5t-13 -35.5l-41 1v0z" />
    <glyph glyph-name="ograve" unicode="&#xf2;" horiz-adv-x="390" 
d="M180 499q79 -1 117 -54t43 -141v-14t1 -17v-6.5v-6.5v-10.5v-10.5q0 -16 -0.5 -32t-2.5 -33q-7 -73 -40.5 -133t-117.5 -60q-83 0 -114.5 70t-31.5 188q0 6 0.5 12.5t0.5 12.5q0 7 0.5 13.5t0.5 13.5q0 14 2.5 41.5t12.5 57.5q13 38 42.5 70t86.5 38v1zM180 451
q-35 -1 -55 -28t-29 -60q-7 -24 -9.5 -46t-2.5 -33q0 -3 -0.5 -6.5t-0.5 -6.5v-3.5t-1 -3.5v-4.5v-4.5q0 -19 1 -41.5t4 -45.5q6 -53 26.5 -96.5t66.5 -43.5q54 0 78 48.5t31 106.5q1 15 2 30.5t1 29.5q0 82 -19 144.5t-93 62.5v1zM146 657l104 -124h-56l-124 124h76v0z" />
    <glyph glyph-name="oacute" unicode="&#xf3;" horiz-adv-x="390" 
d="M180 499q79 -1 117 -54t43 -141v-14t1 -17v-6.5v-6.5v-10.5v-10.5q0 -16 -0.5 -32t-2.5 -33q-7 -73 -40.5 -133t-117.5 -60q-83 0 -114.5 70t-31.5 188q0 6 0.5 12.5t0.5 12.5q0 7 0.5 13.5t0.5 13.5q0 14 2.5 41.5t12.5 57.5q13 38 42.5 70t86.5 38v1zM180 451
q-35 -1 -55 -28t-29 -60q-7 -24 -9.5 -46t-2.5 -33q0 -3 -0.5 -6.5t-0.5 -6.5v-3.5t-1 -3.5v-4.5v-4.5q0 -19 1 -41.5t4 -45.5q6 -53 26.5 -96.5t66.5 -43.5q54 0 78 48.5t31 106.5q1 15 2 30.5t1 29.5q0 82 -19 144.5t-93 62.5v1zM230 657h68l-125 -124h-48l105 124v0z" />
    <glyph glyph-name="ocircumflex" unicode="&#xf4;" horiz-adv-x="390" 
d="M180 499q79 -1 117 -54t43 -141v-14t1 -17v-6.5v-6.5v-10.5v-10.5q0 -16 -0.5 -32t-2.5 -33q-7 -73 -40.5 -133t-117.5 -60q-83 0 -114.5 70t-31.5 188q0 6 0.5 12.5t0.5 12.5q0 7 0.5 13.5t0.5 13.5q0 14 2.5 41.5t12.5 57.5q13 38 42.5 70t86.5 38v1zM180 451
q-35 -1 -55 -28t-29 -60q-7 -24 -9.5 -46t-2.5 -33q0 -3 -0.5 -6.5t-0.5 -6.5v-3.5t-1 -3.5v-4.5v-4.5q0 -19 1 -41.5t4 -45.5q6 -53 26.5 -96.5t66.5 -43.5q54 0 78 48.5t31 106.5q1 15 2 30.5t1 29.5q0 82 -19 144.5t-93 62.5v1zM223 657l96 -124h-62l-70 90l-69 -90h-61
l96 124h70v0z" />
    <glyph glyph-name="otilde" unicode="&#xf5;" horiz-adv-x="390" 
d="M180 506q79 -1 117 -54t43 -141v-14t1 -17v-6.5v-6.5v-10.5v-10.5q0 -16 -0.5 -32t-2.5 -33q-7 -73 -40.5 -133t-117.5 -60q-83 0 -114.5 70t-31.5 188q0 6 0.5 12t0.5 13v4v5q1 4 1 8.5v8.5q0 14 2.5 41.5t12.5 57.5q13 38 42.5 70.5t86.5 38.5v1zM180 458
q-35 -1 -55 -28t-29 -60q-7 -24 -9.5 -46t-2.5 -33q0 -3 -0.5 -6.5t-0.5 -6.5t-0.5 -6t-0.5 -5v-3.5v-2.5q0 -19 1 -41.5t4 -46.5q6 -51 26.5 -94.5t66.5 -43.5q54 0 78 47.5t31 105.5q1 15 2 30.5t1 30.5q0 83 -19 145.5t-93 62.5v1zM43 540q14 49 35 68t44 19q10 0 21 -3
t22 -7q5 -2 10.5 -4.5t11.5 -4.5q16 -7 31 -13t27 -6h2h2q12 1 22.5 11.5t13.5 34.5l41 1q-9 -51 -29 -70.5t-43 -19.5q-12 0 -24.5 3.5t-25.5 7.5l-10 4t-9 4q-18 7 -34 13t-29 6q-14 0 -25 -9.5t-13 -35.5l-41 1v0z" />
    <glyph glyph-name="odieresis" unicode="&#xf6;" horiz-adv-x="390" 
d="M187 499q79 -1 117 -54t42 -141q0 -6 0.5 -14t0.5 -17v-6.5t1 -6.5v-10.5v-10.5q0 -16 -0.5 -32t-2.5 -33q-7 -73 -40.5 -133t-117.5 -60t-115 70t-31 188q0 6 0.5 12.5t0.5 12.5q0 7 0.5 13.5t0.5 13.5q0 14 2.5 41.5t12.5 57.5q13 38 42.5 70t86.5 38v1zM187 451
q-35 -1 -55 -28t-29 -60q-7 -24 -9.5 -46t-2.5 -33q0 -3 -0.5 -6.5t-0.5 -6.5v-3.5t-1 -3.5v-4.5v-4.5q0 -19 1 -41.5t4 -45.5q6 -53 26.5 -96.5t66.5 -43.5q54 0 78 48.5t30 106.5q2 15 2.5 30.5t0.5 29.5q0 82 -18.5 144.5t-92.5 62.5v1zM91 630h55v-90h-55v90v0zM237 630
h55v-90h-55v90v0z" />
    <glyph glyph-name="Aacute" unicode="&#xf7;" 
 />
    <glyph glyph-name="OE" unicode="&#xf8;" horiz-adv-x="390" 
d="M50 388q14 46 53.5 75.5t84.5 32.5h4h4h6t6 -1q24 -2 47.5 -13t42.5 -32l42 56l34 -14l-55 -84q11 -24 18.5 -72t7.5 -102q0 -9 -0.5 -17.5t-0.5 -17.5q-4 -68 -28.5 -127.5t-78.5 -76.5q-8 -3 -18.5 -5t-20.5 -4q-6 0 -11 -0.5t-10 -0.5q-23 0 -50 10.5t-57 39.5
l-55 -74l-27 27l62 96q-8 14 -12 54.5t-4 85.5v4v4v6v7q1 45 4.5 85t11.5 57v1zM285 346l-180 -255q6 -24 28 -41t47 -20h3.5h3.5q5 0 9.5 0.5t9.5 1.5q24 6 46 30t33 69q2 11 3.5 41.5t1.5 64.5v2v2q0 34 -1.5 64.5t-3.5 39.5v1zM264 401q-11 19 -26.5 30t-32.5 15
q-5 1 -10 1.5t-10 0.5h-3h-3q-14 -1 -26.5 -6.5t-20.5 -13.5q-27 -27 -37 -65.5t-11 -79.5v-4v-4q0 -10 0.5 -20t0.5 -20q1 -7 1.5 -14.5t1.5 -15.5l2 -34t1 -33l173 263v0z" />
    <glyph glyph-name="ugrave" unicode="&#xf9;" horiz-adv-x="390" 
d="M271 50q0 -3 -1 -5.5t-2 -4.5q-10 -18 -37.5 -32.5t-59.5 -18.5q-4 0 -9 -0.5t-9 -0.5q-41 0 -75.5 29.5t-34.5 106.5v361h55v-374q0 -41 21.5 -60t48.5 -19q6 0 11.5 1t11.5 2q30 8 55 35t25 68v347h55v-483h-55v48v0zM146 650l104 -123h-56l-124 123h76v0z" />
    <glyph glyph-name="uacute" unicode="&#xfa;" horiz-adv-x="390" 
d="M271 50q0 -3 -1 -5.5t-2 -4.5q-10 -18 -37.5 -32.5t-59.5 -18.5q-4 0 -9 -0.5t-9 -0.5q-41 0 -75.5 29.5t-34.5 106.5v361h55v-374q0 -41 21.5 -60t48.5 -19q6 0 11.5 1t11.5 2q30 8 55 35t25 68v347h55v-483h-55v48v0zM230 657h68l-125 -124h-48l105 124v0z" />
    <glyph glyph-name="ucircumflex" unicode="&#xfb;" horiz-adv-x="390" 
d="M271 50q0 -3 -1 -5.5t-2 -4.5q-10 -18 -37.5 -32.5t-59.5 -18.5q-4 0 -9 -0.5t-9 -0.5q-41 0 -75.5 29.5t-34.5 106.5v361h55v-374q0 -41 21.5 -60t48.5 -19q6 0 11.5 1t11.5 2q30 8 55 35t25 68v347h55v-483h-55v48v0zM216 650l96 -123h-62l-70 89l-69 -89h-61l96 123
h70v0z" />
    <glyph glyph-name="udieresis" unicode="&#xfc;" horiz-adv-x="390" 
d="M230 50q0 -3 -1 -5.5t-2 -4.5q-10 -18 -38.5 -32.5t-61.5 -18.5q-4 -1 -8 -1h-8h-1.5h-1.5q-40 1 -73 30.5t-33 105.5v361h55v-374q0 -41 21.5 -60t48.5 -19q6 0 11.5 1t11.5 2q30 8 55 35t25 68v347h55v-483h-55v48v0zM43 630h55v-90h-55v90v0zM187 630h57v-90h-57v90v0
z" />
    <glyph glyph-name="yacute" unicode="&#xfd;" 
 />
    <glyph glyph-name="glyph237" unicode="&#xfe;" 
 />
    <glyph glyph-name="Egrave" unicode="&#xff;" horiz-adv-x="349" 
d="M70 485l103 -394l105 394h55l-153 -559q-2 -6 -6 -17.5t-13 -24.5q-13 -18 -38 -32.5t-68 -14.5h-26v48q2 -1 4.5 -1t4.5 -1h7h6q31 0 49 18t27 39q7 18 9.5 33.5t2.5 21.5l-124 490h55v0zM63 630h55v-90h-55v90v0zM208 630h56v-90h-56v90v0z" />
    <glyph glyph-name="Abreve" unicode="&#x102;" 
 />
    <glyph glyph-name="abreve" unicode="&#x103;" 
 />
    <glyph glyph-name="Aogonek" unicode="&#x104;" 
 />
    <glyph glyph-name="aogonek" unicode="&#x105;" 
 />
    <glyph glyph-name="Cacute" unicode="&#x106;" 
 />
    <glyph glyph-name="cacute" unicode="&#x107;" 
 />
    <glyph glyph-name="Ccaron" unicode="&#x10c;" 
 />
    <glyph glyph-name="ccaron" unicode="&#x10d;" 
 />
    <glyph glyph-name="Dcaron" unicode="&#x10e;" 
 />
    <glyph glyph-name="dcaron" unicode="&#x10f;" 
 />
    <glyph glyph-name="Dcroat" unicode="&#x110;" 
 />
    <glyph glyph-name="dcroat" unicode="&#x111;" 
 />
    <glyph glyph-name="Eogonek" unicode="&#x118;" 
 />
    <glyph glyph-name="eogonek" unicode="&#x119;" 
 />
    <glyph glyph-name="Ecaron" unicode="&#x11a;" 
 />
    <glyph glyph-name="ecaron" unicode="&#x11b;" 
 />
    <glyph glyph-name="Gbreve" unicode="&#x11e;" 
 />
    <glyph glyph-name="gbreve" unicode="&#x11f;" 
 />
    <glyph glyph-name="Idotaccent" unicode="&#x130;" 
 />
    <glyph glyph-name="thorn" unicode="&#x131;" 
 />
    <glyph glyph-name="Lacute" unicode="&#x139;" 
 />
    <glyph glyph-name="lacute" unicode="&#x13a;" 
 />
    <glyph glyph-name="Lcaron" unicode="&#x13d;" 
 />
    <glyph glyph-name="lcaron" unicode="&#x13e;" 
 />
    <glyph glyph-name="Ldot" unicode="&#x13f;" 
 />
    <glyph glyph-name="ldot" unicode="&#x140;" 
 />
    <glyph glyph-name="glyph225" unicode="&#x141;" 
 />
    <glyph glyph-name="glyph226" unicode="&#x142;" 
 />
    <glyph glyph-name="Nacute" unicode="&#x143;" 
 />
    <glyph glyph-name="nacute" unicode="&#x144;" 
 />
    <glyph glyph-name="Ncaron" unicode="&#x147;" 
 />
    <glyph glyph-name="ncaron" unicode="&#x148;" 
 />
    <glyph glyph-name="Ohungarumlaut" unicode="&#x150;" 
 />
    <glyph glyph-name="ohungarumlaut" unicode="&#x151;" 
 />
    <glyph glyph-name="fi" unicode="&#x152;" 
 />
    <glyph glyph-name="fl" unicode="&#x153;" 
 />
    <glyph glyph-name="Racute" unicode="&#x154;" 
 />
    <glyph glyph-name="racute" unicode="&#x155;" 
 />
    <glyph glyph-name="Rcaron" unicode="&#x158;" 
 />
    <glyph glyph-name="rcaron" unicode="&#x159;" 
 />
    <glyph glyph-name="Sacute" unicode="&#x15a;" 
 />
    <glyph glyph-name="sacute" unicode="&#x15b;" 
 />
    <glyph glyph-name="Scedilla" unicode="&#x15e;" 
 />
    <glyph glyph-name="scedilla" unicode="&#x15f;" 
 />
    <glyph glyph-name="glyph227" unicode="&#x160;" 
 />
    <glyph glyph-name="glyph228" unicode="&#x161;" 
 />
    <glyph glyph-name="uni0162" unicode="&#x162;" 
 />
    <glyph glyph-name="uni0163" unicode="&#x163;" 
 />
    <glyph glyph-name="Tcaron" unicode="&#x164;" 
 />
    <glyph glyph-name="tcaron" unicode="&#x165;" 
 />
    <glyph glyph-name="Uring" unicode="&#x16e;" 
 />
    <glyph glyph-name="uring" unicode="&#x16f;" 
 />
    <glyph glyph-name="Uhungarumlaut" unicode="&#x170;" 
 />
    <glyph glyph-name="uhungarumlaut" unicode="&#x171;" 
 />
    <glyph glyph-name="Iacute" unicode="&#x178;" horiz-adv-x="349" 
d="M70 485l103 -394l105 394h55l-153 -559q-2 -6 -6 -17.5t-13 -24.5q-13 -18 -38 -32.5t-68 -14.5h-26v48q2 -1 4.5 -1t4.5 -1h7h6q31 0 49 18t27 39q7 18 9.5 33.5t2.5 21.5l-124 490h55v0zM63 630h55v-90h-55v90v0zM208 630h56v-90h-56v90v0z" />
    <glyph glyph-name="Zacute" unicode="&#x179;" 
 />
    <glyph glyph-name="zacute" unicode="&#x17a;" 
 />
    <glyph glyph-name="Zdotaccent" unicode="&#x17b;" 
 />
    <glyph glyph-name="zdotaccent" unicode="&#x17c;" 
 />
    <glyph glyph-name="Zcaron" unicode="&#x17d;" 
 />
    <glyph glyph-name="zcaron" unicode="&#x17e;" 
 />
    <glyph glyph-name="quotedblright" unicode="&#x192;" 
 />
    <glyph glyph-name="uni02BA" unicode="&#x2ba;" 
 />
    <glyph glyph-name="arrowright" unicode="&#x2c6;" horiz-adv-x="390" 
d="M15 194q23 40 46.5 55.5t48.5 15.5q14 0 28 -3.5t29 -8.5q5 -2 10.5 -4t10.5 -4q20 -8 39 -14.5t37 -6.5q5 0 10.5 1t11.5 2q14 5 28.5 16.5t25.5 33.5l27 -33q-8 -14 -16.5 -24.5t-16.5 -18.5q-17 -15 -33.5 -22t-32.5 -7q-20 0 -40 7t-40 16q-19 8 -37.5 15t-35.5 7
q-18 0 -35 -11t-30 -41l-35 29v0z" />
    <glyph glyph-name="glyph224" unicode="&#x2c7;" 
 />
    <glyph glyph-name="house" unicode="&#x2c9;" 
 />
    <glyph glyph-name="endash" unicode="&#x2d8;" 
 />
    <glyph glyph-name="sfthyphen" unicode="&#x2d9;" 
 />
    <glyph glyph-name="filledbox" unicode="&#x2da;" 
 />
    <glyph glyph-name="glyph223" unicode="&#x2db;" 
 />
    <glyph glyph-name="onehalf" unicode="&#x2dc;" horiz-adv-x="390" 
d="M166 657h42l118 -359h-41l-98 290l-96 -290h-41l116 359v0z" />
    <glyph glyph-name="Gamma" unicode="&#x393;" 
 />
    <glyph glyph-name="Theta" unicode="&#x398;" 
 />
    <glyph glyph-name="exclamdown" unicode="&#x3a3;" 
 />
    <glyph glyph-name="Phi" unicode="&#x3a6;" 
 />
    <glyph glyph-name="Atilde" unicode="&#x3a9;" 
 />
    <glyph glyph-name="alpha" unicode="&#x3b1;" 
 />
    <glyph glyph-name="delta" unicode="&#x3b4;" 
 />
    <glyph glyph-name="epsilon" unicode="&#x3b5;" 
 />
    <glyph glyph-name="guillemotleft" unicode="&#x3c0;" 
 />
    <glyph glyph-name="sigma" unicode="&#x3c3;" 
 />
    <glyph glyph-name="tau" unicode="&#x3c4;" 
 />
    <glyph glyph-name="phi" unicode="&#x3c6;" 
 />
    <glyph glyph-name="glyph259" unicode="&#x2013;" 
 />
    <glyph glyph-name="periodcentered" unicode="&#x2014;" 
 />
    <glyph glyph-name="underscoredbl" unicode="&#x2017;" 
 />
    <glyph glyph-name="Acircumflex" unicode="&#x2018;" horiz-adv-x="881" 
d="M115 77h69v-75h-69v75v0zM405 77h70v-75h-70v75v0zM690 77h68v-75h-68v75v0z" />
    <glyph glyph-name="Ecircumflex" unicode="&#x2019;" horiz-adv-x="881" 
d="M391 650h41l-255 -655h-41l255 655v0zM717 319h9q50 -1 77 -44.5t31 -102.5q0 -12 -0.5 -25.5t-1.5 -26.5q-5 -43 -27 -79t-81 -40q-1 0 -2 -0.5t-3 -0.5v0v0h-3.5h-1.5q-62 0 -88.5 47t-28.5 105v4v4q0 3 0.5 6t0.5 7t0.5 7t0.5 6q4 66 38 98t74 34h2.5h3.5v1zM717 278
q-25 -6 -45 -28t-25 -85v-1.5v-1.5q0 -45 14.5 -82.5t55.5 -37.5t55 35.5t14 81.5q0 45 -15 81.5t-47 36.5l-7 1v0zM448 319q56 -1 86 -49t30 -111q0 -62 -27 -110t-89 -48q-61 0 -92.5 49.5t-31.5 108.5v4v4q2 57 33 104t86 47l5 1v0zM448 285q-32 -1 -51.5 -40t-19.5 -86
q0 -46 17 -81.5t54 -35.5q33 0 50 35t17 78v6.5v6.5q-3 43 -20.5 79.5t-46.5 36.5v1zM122 643h8q57 -1 87 -50.5t30 -108.5v-6.5v-6.5q-4 -55 -36.5 -100.5t-95.5 -45.5q-51 0 -81 50t-31 110v1.5v1.5q0 58 30 106t89 48v1zM129 609q-36 -1 -52.5 -39.5t-16.5 -85.5
t15.5 -82.5t46.5 -35.5q36 0 54 36.5t20 80.5v4v4q0 44 -16.5 80.5t-47.5 36.5l-3 1v0z" />
    <glyph glyph-name="Ugrave" unicode="&#x201a;" 
 />
    <glyph glyph-name="quotedblbase" unicode="&#x201c;" horiz-adv-x="778" 
d="M250 666v-57h-84v-317h-48v317h-75v57h207v0zM292 666h75l62 -258l70 258h76v-374h-48v310l-76 -310h-36l-82 310v-310h-41v374v0z" />
    <glyph glyph-name="perthousand" unicode="&#x201d;" horiz-adv-x="267" 
d="M57 657h48v-199h-48v199v0zM153 657h48v-199h-48v199v0z" />
    <glyph glyph-name="dotlessi" unicode="&#x201e;" 
 />
    <glyph glyph-name="dagger" unicode="&#x2020;" 
 />
    <glyph glyph-name="Uacute" unicode="&#x2021;" 
 />
    <glyph glyph-name="glyph262" unicode="&#x2022;" horiz-adv-x="329" 
d="M101 657l103 -124h-55l-123 124h75v0z" />
    <glyph glyph-name="fraction" unicode="&#x2026;" 
 />
    <glyph glyph-name="circumflex" unicode="&#x2030;" 
 />
    <glyph glyph-name="Igrave" unicode="&#x2039;" horiz-adv-x="390" 
d="M9 237l365 207v-56l-324 -174l324 -171v-55l-365 206v43v0z" />
    <glyph glyph-name="Oacute" unicode="&#x203a;" horiz-adv-x="390" 
d="M9 451l358 -207v-50l-358 -206v55l317 171l-317 181v56v0z" />
    <glyph glyph-name="exclamdbl" unicode="&#x203c;" 
 />
    <glyph glyph-name="uni207F" unicode="&#x207f;" 
 />
    <glyph glyph-name="franc" unicode="&#x20a3;" 
 />
    <glyph glyph-name="peseta" unicode="&#x20a7;" 
 />
    <glyph glyph-name="trademark" unicode="&#x2122;" 
 />
    <glyph glyph-name="arrowleft" unicode="&#x2190;" 
 />
    <glyph glyph-name="arrowup" unicode="&#x2191;" 
 />
    <glyph glyph-name="glyph257" unicode="&#x2192;" horiz-adv-x="500" 
 />
    <glyph glyph-name="arrowdown" unicode="&#x2193;" 
 />
    <glyph glyph-name="arrowboth" unicode="&#x2194;" 
 />
    <glyph glyph-name="arrowupdn" unicode="&#x2195;" 
 />
    <glyph glyph-name="arrowupdnbse" unicode="&#x21a8;" 
 />
    <glyph glyph-name="questiondown" unicode="&#x2202;" 
 />
    <glyph glyph-name="quoteright" unicode="&#x2206;" 
 />
    <glyph glyph-name="florin" unicode="&#x220f;" 
 />
    <glyph glyph-name="minus" unicode="&#x2212;" 
 />
    <glyph glyph-name="Icircumflex" unicode="&#x2215;" horiz-adv-x="246" 
d="M254 657l-221 -738h-48l212 738h57v0z" />
    <glyph glyph-name="Ucircumflex" unicode="&#x2219;" horiz-adv-x="535" 
d="M252 492q5 -1 10.5 -1.5t11.5 -0.5q56 -7 104 -48.5t53 -116.5q0 -11 -2 -22t-6 -22q-16 -44 -56.5 -81t-93.5 -41h-3t-3 -1h-1v0q-2 0 -4 -0.5t-3 -0.5q-64 0 -115 47.5t-51 120.5t45.5 114t100.5 50q3 1 6.5 1.5t6.5 0.5v1z" />
    <glyph glyph-name="quotedblleft" unicode="&#x221a;" 
 />
    <glyph glyph-name="yen" unicode="&#x221e;" 
 />
    <glyph glyph-name="orthogonal" unicode="&#x221f;" 
 />
    <glyph glyph-name="intersection" unicode="&#x2229;" 
 />
    <glyph glyph-name="guillemotright" unicode="&#x222b;" 
 />
    <glyph glyph-name="quoteleft" unicode="&#x2248;" 
 />
    <glyph glyph-name="AE" unicode="&#x2260;" 
 />
    <glyph glyph-name="equivalence" unicode="&#x2261;" 
 />
    <glyph glyph-name="ordfeminine" unicode="&#x2264;" 
 />
    <glyph glyph-name="ordmasculine" unicode="&#x2265;" 
 />
    <glyph glyph-name="glyph258" unicode="&#x2302;" 
 />
    <glyph glyph-name="revlogicalnot" unicode="&#x2310;" 
 />
    <glyph glyph-name="integraltp" unicode="&#x2320;" 
 />
    <glyph glyph-name="integralbt" unicode="&#x2321;" 
 />
    <glyph glyph-name="SF100000" unicode="&#x2500;" 
 />
    <glyph glyph-name="SF110000" unicode="&#x2502;" 
 />
    <glyph glyph-name="SF010000" unicode="&#x250c;" 
 />
    <glyph glyph-name="SF030000" unicode="&#x2510;" 
 />
    <glyph glyph-name="SF020000" unicode="&#x2514;" 
 />
    <glyph glyph-name="SF040000" unicode="&#x2518;" 
 />
    <glyph glyph-name="SF080000" unicode="&#x251c;" 
 />
    <glyph glyph-name="SF090000" unicode="&#x2524;" 
 />
    <glyph glyph-name="SF060000" unicode="&#x252c;" 
 />
    <glyph glyph-name="SF070000" unicode="&#x2534;" 
 />
    <glyph glyph-name="SF050000" unicode="&#x253c;" 
 />
    <glyph glyph-name="SF430000" unicode="&#x2550;" 
 />
    <glyph glyph-name="SF240000" unicode="&#x2551;" 
 />
    <glyph glyph-name="SF510000" unicode="&#x2552;" 
 />
    <glyph glyph-name="SF520000" unicode="&#x2553;" 
 />
    <glyph glyph-name="SF390000" unicode="&#x2554;" 
 />
    <glyph glyph-name="SF220000" unicode="&#x2555;" 
 />
    <glyph glyph-name="SF210000" unicode="&#x2556;" 
 />
    <glyph glyph-name="SF250000" unicode="&#x2557;" 
 />
    <glyph glyph-name="SF500000" unicode="&#x2558;" 
 />
    <glyph glyph-name="SF490000" unicode="&#x2559;" 
 />
    <glyph glyph-name="SF380000" unicode="&#x255a;" 
 />
    <glyph glyph-name="SF280000" unicode="&#x255b;" 
 />
    <glyph glyph-name="SF270000" unicode="&#x255c;" 
 />
    <glyph glyph-name="SF260000" unicode="&#x255d;" 
 />
    <glyph glyph-name="SF360000" unicode="&#x255e;" 
 />
    <glyph glyph-name="SF370000" unicode="&#x255f;" 
 />
    <glyph glyph-name="SF420000" unicode="&#x2560;" 
 />
    <glyph glyph-name="SF190000" unicode="&#x2561;" 
 />
    <glyph glyph-name="SF200000" unicode="&#x2562;" 
 />
    <glyph glyph-name="SF230000" unicode="&#x2563;" 
 />
    <glyph glyph-name="SF470000" unicode="&#x2564;" 
 />
    <glyph glyph-name="SF480000" unicode="&#x2565;" 
 />
    <glyph glyph-name="SF410000" unicode="&#x2566;" 
 />
    <glyph glyph-name="SF450000" unicode="&#x2567;" 
 />
    <glyph glyph-name="SF460000" unicode="&#x2568;" 
 />
    <glyph glyph-name="SF400000" unicode="&#x2569;" 
 />
    <glyph glyph-name="SF540000" unicode="&#x256a;" 
 />
    <glyph glyph-name="SF530000" unicode="&#x256b;" 
 />
    <glyph glyph-name="SF440000" unicode="&#x256c;" 
 />
    <glyph glyph-name="upblock" unicode="&#x2580;" 
 />
    <glyph glyph-name="dnblock" unicode="&#x2584;" 
 />
    <glyph glyph-name="block" unicode="&#x2588;" 
 />
    <glyph glyph-name="lfblock" unicode="&#x258c;" 
 />
    <glyph glyph-name="rtblock" unicode="&#x2590;" 
 />
    <glyph glyph-name="ltshade" unicode="&#x2591;" 
 />
    <glyph glyph-name="shade" unicode="&#x2592;" 
 />
    <glyph glyph-name="dkshade" unicode="&#x2593;" 
 />
    <glyph glyph-name="glyph261" unicode="&#x25a0;" horiz-adv-x="500" 
 />
    <glyph glyph-name="filledrect" unicode="&#x25ac;" 
 />
    <glyph glyph-name="triagup" unicode="&#x25b2;" 
 />
    <glyph glyph-name="triagrt" unicode="&#x25ba;" 
 />
    <glyph glyph-name="triagdn" unicode="&#x25bc;" 
 />
    <glyph glyph-name="triaglf" unicode="&#x25c4;" 
 />
    <glyph glyph-name="Edieresis" unicode="&#x25ca;" 
 />
    <glyph glyph-name="circle" unicode="&#x25cb;" 
 />
    <glyph glyph-name="invbullet" unicode="&#x25d8;" 
 />
    <glyph glyph-name="invcircle" unicode="&#x25d9;" 
 />
    <glyph glyph-name="smileface" unicode="&#x263a;" 
 />
    <glyph glyph-name="invsmileface" unicode="&#x263b;" 
 />
    <glyph glyph-name="sun" unicode="&#x263c;" 
 />
    <glyph glyph-name="female" unicode="&#x2640;" 
 />
    <glyph glyph-name="male" unicode="&#x2642;" 
 />
    <glyph glyph-name="spade" unicode="&#x2660;" 
 />
    <glyph glyph-name="club" unicode="&#x2663;" 
 />
    <glyph glyph-name="heart" unicode="&#x2665;" 
 />
    <glyph glyph-name="diamond" unicode="&#x2666;" 
 />
    <glyph glyph-name="musicalnote" unicode="&#x266a;" 
 />
    <glyph glyph-name="musicalnotedbl" unicode="&#x266b;" 
 />
    <glyph glyph-name="Scaron" unicode="&#xf000;" 
 />
    <glyph glyph-name="Ocircumflex" unicode="&#xf001;" 
 />
    <glyph glyph-name="Ograve" unicode="&#xf002;" 
 />
    <glyph glyph-name="degree" horiz-adv-x="308" 
d="M160 693q29 -1 52.5 -25.5t30.5 -54.5q0 -1 0.5 -2.5t0.5 -2.5v-15v-2.5v-1.5q-1 -26 -20 -48t-64 -22q-1 0 -2 -0.5t-2 -0.5q-2 0 -3 -0.5t-2 -0.5q-43 0 -64.5 25t-21.5 56q0 4 0.5 7.5t0.5 6.5q5 30 27 55t55 25l12 1v0zM153 657q-26 -6 -40.5 -19.5t-14.5 -29.5
q0 -1 -0.5 -2.5t-0.5 -3.5v0v0q0 -2 -0.5 -3.5t-0.5 -2.5q0 -3 0.5 -5.5t1.5 -5.5q4 -10 15.5 -19.5t32.5 -12.5q2 0 4 -0.5t4 -0.5q1 -1 3 -1.5t4 -0.5q22 0 35.5 15.5t14.5 34.5v1.5v1.5v1.5v1.5q-1 19 -15.5 34.5t-42.5 15.5v1z" />
    <glyph glyph-name="bullet" horiz-adv-x="329" 
d="M101 657l103 -124h-55l-123 124h75v0z" />
    <glyph glyph-name="daggerdbl" 
 />
    </font>
</defs>
</svg>
